<?xml version="1.0" encoding="UTF-8"?>
<svg id="Layer_2" data-name="Layer 2" xmlns="http://www.w3.org/2000/svg" viewBox="0 0 266.74 97.12">
  <defs>
    <style>
      .cls-1 {
        font-family: ArialMT, Arial;
        font-size: 11px;
      }

      .cls-2 {
        letter-spacing: .07em;
      }

      .cls-3 {
        letter-spacing: .07em;
      }

      .cls-4 {
        letter-spacing: .05em;
      }

      .cls-5 {
        fill: #08abfd;
      }

      .cls-5, .cls-6, .cls-7, .cls-8 {
        stroke-width: 0px;
      }

      .cls-6 {
        fill: #bbbec1;
      }

      .cls-7 {
        fill: #fbfdfd;
      }

      .cls-8 {
        fill: #01afee;
      }
    </style>
  </defs>
  <g id="Layer_1-2" data-name="Layer 1">
    <g>
      <path class="cls-8" d="M266.6,33.87c-3.43,0-6.86.04-10.29-.02-.98-.02-1.26.21-1.26,1.23.05,7.26,0,14.52.05,21.78,0,1.01-.27,1.31-1.26,1.23-1.15-.09-2.32-.07-3.47,0-.84.05-1.07-.2-1.06-1.05.04-4.43.02-8.85.02-13.28,0-2.95-.03-5.9.02-8.85.02-.86-.25-1.06-1.07-1.05-3.15.05-6.3,0-9.45.04-.78.01-1.04-.2-1-.99.06-1.31.08-2.64,0-3.95-.06-.92.25-1.12,1.13-1.11,6.98.04,13.96.02,20.94.02,2.23,0,4.47.01,6.7.02v5.99Z"/>
      <path class="cls-8" d="M141.55,43.47c0-4.71.01-9.42-.02-14.13,0-.75.15-1.06.97-1.02,1.59.07,3.19.07,4.79,0,.84-.03.98.3.97,1.03-.03,3.31.02,6.63-.04,9.94-.01.89.22,1.14,1.12,1.13,5.59-.04,11.18-.04,16.77,0,.91,0,1.13-.26,1.12-1.14-.05-3.31,0-6.63-.04-9.94,0-.75.16-1.06.98-1.03,1.59.06,3.19.05,4.79,0,.69-.02.97.12.97.91-.03,9.46-.03,18.92,0,28.38,0,.72-.17.97-.92.95-1.59-.06-3.2-.07-4.79,0-.9.04-1.03-.31-1.02-1.1.04-3.31,0-6.63.03-9.94.01-.83-.22-1.08-1.06-1.07-5.63.04-11.26.04-16.89,0-.86,0-1.06.27-1.05,1.09.04,3.31,0,6.63.04,9.94.01.8-.15,1.13-1.03,1.09-1.55-.07-3.12-.07-4.67,0-.88.04-1.04-.27-1.03-1.08.04-4.67.02-9.34.02-14.01Z"/>
      <path class="cls-8" d="M125.94,58.54c-3.59,0-7.19,0-10.78,0-4.17-.01-6.16-2-6.17-6.19-.01-5.87-.01-11.73,0-17.6,0-3.89,2.48-6.4,6.33-6.41,7.35-.01,14.69.01,22.04-.03.92,0,1.16.26,1.1,1.14-.08,1.27-.09,2.56,0,3.83.07.96-.31,1.09-1.15,1.09-6.95-.03-13.89,0-20.84-.04-1.05,0-1.41.21-1.4,1.35.07,5.23.05,10.46,0,15.69,0,.94.24,1.2,1.19,1.2,6.99-.04,13.97,0,20.96-.05,1.02,0,1.3.28,1.22,1.26-.09,1.19-.1,2.4,0,3.59.09,1.07-.33,1.22-1.27,1.21-3.75-.05-7.5-.02-11.26-.02Z"/>
      <path class="cls-8" d="M234.65,28.1c-6.25,4.62-12.51,9.24-18.76,13.86q-1.39,1.03,0,2.05c6.01,4.42,12.01,8.84,18.02,13.26.26.19.51.38.77.58-.24.39-.59.2-.87.21-2.31.02-4.63-.04-6.94.03-.95.03-1.65-.27-2.37-.85-3.66-2.96-7.35-5.88-11.03-8.81-.27-.22-.56-.41-.88-.65-.25.38-.16.74-.16,1.08,0,2.67-.06,5.35.02,8.02.03,1.03-.31,1.29-1.28,1.22-1.11-.08-2.24-.08-3.35,0-.88.06-1.14-.19-1.13-1.1.04-6.98.02-13.96.02-20.94,0-2.39.03-4.79-.02-7.18-.01-.76.17-1.05.98-1.01,1.27.07,2.55.06,3.83,0,.76-.03.93.25.93.96-.03,3.07-.01,6.14-.01,9.26.54.01.81-.38,1.12-.63,3.69-2.93,7.37-5.85,11.03-8.82.7-.56,1.39-.79,2.28-.77,2.58.05,5.16.02,7.74.02.02.08.04.16.07.24Z"/>
      <path class="cls-8" d="M191.73,58.78c-2.83,0-5.66.01-8.5,0-3.31-.02-5.02-1.74-5.02-4.99,0-3.79,0-7.58,0-11.37,0-2.66,1.59-4.42,4.25-4.45,5.34-.07,10.69-.07,16.04,0,2.73.03,4.39,1.87,4.4,4.6,0,1,0,1.99,0,2.99,0,3.17-1.65,4.84-4.86,4.86-4.35.03-8.7-.03-13.04.05-.59.01-1.72-.76-1.82.71-.15,2.13.4,3.17,1.82,3.34.87.1,1.75.14,2.62.14,4.31.01,8.62.03,12.92-.01.88,0,1.15.2,1.14,1.12-.03,3.03,0,3.03-3.02,3.03-2.31,0-4.63,0-6.94,0ZM190.55,46.29c2.19,0,4.38,0,6.57,0,.37,0,.87.13.86-.51,0-.95.04-1.92-.26-2.84-.16-.51-.42-.9-1.09-.9-3.86.02-7.73,0-11.59.02-1.11,0-1.73.68-1.82,1.8-.04.47.01.96-.02,1.43-.06.76.23,1.03,1.02,1.02,2.11-.05,4.22-.02,6.33-.02Z"/>
      <path class="cls-7" d="M190.55,46.29c-2.11,0-4.22-.03-6.33.02-.79.02-1.08-.25-1.02-1.02.04-.47-.02-.96.02-1.43.09-1.12.71-1.79,1.82-1.8,3.86-.03,7.73,0,11.59-.02.67,0,.93.39,1.09.9.3.92.25,1.89.26,2.84,0,.64-.49.51-.86.51-2.19,0-4.38,0-6.57,0Z"/>
    </g>
    <g>
      <path class="cls-5" d="M0,17.96c-.03-2.56.04-5.51.19-8.46.03-.63.16-.99.82-1.23C10.15,4.96,19.5,2.5,29.13,1.17,35.19.33,41.28-.08,47.39.01c14.51.23,28.49,3.14,42,8.39.58.22,1,.42,1.01,1.23.11,14.3-1.06,28.45-5.13,42.25-3.03,10.29-7.63,19.77-14.69,27.95-6.71,7.77-14.95,13.36-24.44,17.16-.59.23-1.05.12-1.58-.09-20.56-8.45-33.66-23.58-40-44.74-2.28-7.59-3.55-15.37-4.12-23.27C.18,25.38,0,21.87,0,17.96ZM45.51,77.11c2.12.02,4.2-.31,6.27-.7,11.34-2.11,18.98-8.88,23.65-19.13,2.75-6.04,2.87-12.46,1.74-18.95-1.92-10.99-7.91-18.81-18.06-23.4-4.31-1.95-8.87-2.96-13.61-3.16-3.8.17-7.49.89-11.07,2.15-6.94,2.45-12.6,6.6-16.52,12.88-3.15,5.03-4.47,10.63-4.8,16.52-.39,7.12,1.27,13.63,5.36,19.5,6.56,9.41,15.68,13.96,27.04,14.29Z"/>
      <path class="cls-7" d="M45.51,77.11c-11.36-.33-20.48-4.88-27.04-14.29-4.09-5.87-5.75-12.39-5.36-19.5.32-5.89,1.65-11.49,4.8-16.52,3.93-6.27,9.59-10.43,16.52-12.88,3.58-1.26,7.27-1.98,11.07-2.15,0,3.23,0,6.45,0,9.68-1.14.16-2.3.11-3.45.28-14.4,2.14-23.36,16.62-18.81,30.42,2.93,8.88,11.43,15.98,22.27,15.99,0,2.99,0,5.98,0,8.96Z"/>
      <path class="cls-6" d="M45.51,77.11c0-2.99,0-5.98,0-8.96,1.35-.12,2.7-.13,4.04-.35,9.38-1.57,16.97-9.05,18.89-18.64,1.82-9.11-2.42-18.94-10.28-23.93-3.87-2.46-8.1-3.66-12.66-3.78,0-3.23,0-6.45,0-9.68,4.73.2,9.29,1.21,13.61,3.16,10.15,4.59,16.14,12.41,18.06,23.4,1.13,6.49,1.01,12.91-1.74,18.95-4.67,10.25-12.31,17.03-23.65,19.13-2.07.38-4.15.72-6.27.7Z"/>
      <path class="cls-8" d="M45.5,21.45c4.56.11,8.78,1.32,12.66,3.78,7.86,4.98,12.1,14.81,10.28,23.93-1.91,9.59-9.51,17.07-18.89,18.64-1.35.23-2.7.23-4.04.35-10.84-.02-19.34-7.12-22.27-15.99-4.55-13.8,4.41-28.28,18.81-30.42,1.15-.17,2.31-.13,3.45-.28ZM55.42,44.6c-.01-.24-.03-.72-.07-1.2-.53-5.72-6.14-10.1-11.53-9.04-.88.17-1.21.32-.74,1.33.93,1.96.39,4.3-1.11,5.73-1.47,1.4-3.36,1.66-5.42.66-.56-.27-.72-.24-.87.37-1.12,4.35,1.08,9.48,5.06,11.7,6.68,3.73,14.66-1.33,14.67-9.54Z"/>
      <path class="cls-7" d="M55.42,44.6c-.01,8.21-8,13.28-14.67,9.54-3.98-2.23-6.18-7.35-5.06-11.7.16-.61.32-.64.87-.37,2.06,1,3.95.74,5.42-.66,1.5-1.42,2.03-3.77,1.11-5.73-.48-1-.14-1.15.74-1.33,5.38-1.06,11,3.32,11.53,9.04.04.48.06.96.07,1.2Z"/>
    </g>
    <text class="cls-1" transform="translate(109.21 69.53)"><tspan class="cls-2" x="0" y="0">Professional </tspan><tspan class="cls-4" x="73.88" y="0">V</tspan><tspan class="cls-3" x="81.81" y="0">isual Security</tspan></text>
  </g>
</svg>