<?xml version="1.0" encoding="utf-8"?>
<!-- Generator: Adobe Illustrator 28.2.0, SVG Export Plug-In . SVG Version: 6.00 Build 0)  -->
<svg version="1.1" id="Layer_1" xmlns="http://www.w3.org/2000/svg" xmlns:xlink="http://www.w3.org/1999/xlink" x="0px" y="0px"
	 viewBox="0 0 100 37" style="enable-background:new 0 0 100 37;" xml:space="preserve">
<path d="M31.6,21.6H0v2h30.7C31.1,23,31.3,22.3,31.6,21.6 M30.9,9.9L0,9.9v2h31.7C31.5,11.2,31.2,10.5,30.9,9.9 M32.1,13.8H0v2h32.3
	C32.3,15.1,32.2,14.5,32.1,13.8 M16.5,0.3L16.5,0.3L0,0.3V8l29.9,0C27.1,3.5,22.1,0.4,16.5,0.3 M32.3,17.7H0v2h32
	C32.2,19.1,32.3,18.4,32.3,17.7 M0,32.8h16.3v0c5.6-0.1,10.5-3,13.3-7.3H0V32.8z M84.1,0.3L84.1,0.3l-16,0V8l22,0v1.9l-22,0v2h24.4
	v1.9H68.1v1.9l26.5,0v1.9l-26.5,0v2.1l24.4,0v1.9l-24.4,0v2h22.1v1.9H68.1v11.2h12.4v-3.9H84v0c8.9-0.1,16-7.4,16-16.3
	C100,7.7,92.9,0.5,84.1,0.3 M50.2,9.9L50.2,9.9L50.2,9.9L50.2,9.9l-5.9-9.6H33.4V8h1.8v1.9h-1.8v2h4.2v1.9h-4.2v2h6.6v1.9h-6.6v2h9
	v1.9h-9v2h11.2v1.9H33.4v7.3H67V0.3H56.1C56.1,0.3,50.2,9.9,50.2,9.9z"/>
<path d="M50.2,9.9L50.2,9.9L50.2,9.9L50.2,9.9z M97.1,30.4h0.3c0.3,0,0.6-0.1,0.6-0.3c0-0.2-0.2-0.4-0.5-0.4c-0.1,0-0.2,0-0.3,0
	V30.4z M97.1,31.7h-0.6v-2.4c0.2,0,0.5-0.1,0.9-0.1c0.5,0,0.7,0.1,0.8,0.2c0.2,0.1,0.3,0.3,0.2,0.5c0,0.3-0.2,0.5-0.5,0.6v0
	c0.2,0.1,0.3,0.3,0.4,0.6c0.1,0.4,0.1,0.5,0.2,0.6H98c-0.1-0.1-0.1-0.3-0.2-0.6c0-0.2-0.2-0.4-0.5-0.4h-0.3
	C97.1,30.8,97.1,31.7,97.1,31.7z M95.6,30.5c0,1.1,0.8,1.9,1.9,1.9c1,0,1.8-0.8,1.8-1.9c0-1.1-0.8-1.9-1.8-1.9
	C96.4,28.6,95.6,29.4,95.6,30.5 M99.9,30.5c0,1.3-1.1,2.4-2.4,2.4c-1.4,0-2.5-1.1-2.5-2.4c0-1.3,1.1-2.4,2.5-2.4
	C98.8,28.1,99.9,29.1,99.9,30.5"/>
</svg>
