<?xml version="1.0" encoding="UTF-8"?>
<svg id="Layer_2" data-name="Layer 2" xmlns="http://www.w3.org/2000/svg" viewBox="0 0 600.37 607.2">
  <defs>
    <style>
      .cls-1, .cls-2 {
        stroke-width: 0px;
      }

      .cls-2 {
        fill: #d02127;
      }
    </style>
  </defs>
  <g id="Layer_1-2" data-name="Layer 1">
    <path class="cls-2" d="M68.98,343.89c1.72,5.77,3.83,13.51,5.8,19.2,0,0,0,0,0,0-2.03-5.83-4.3-13.37-5.79-19.2ZM290.39,228.28h0,0ZM70.03,339.09s-.02-.12-.01-.1c0-.06,0-.09-.02-.15,0,.01,0,.02,0,.03.25,2.18.96,5.26,1.78,7.78h0c1.08,3.33,2.15,5.21,2.53,4.48.51-.97-.22-4.93-1.23-8.52-.02-.74-.11-1.66-.26-2.73h0c-.46-3.16-1.75-8.45-3.14-10.34-.16-.17-.31-.33-.49-.28-.75.22-.52,3.32.14,6.68-3.63-11.21-4.6-14.75-5.87-24.12-.57-4.68-1.09-9.61-1.57-14.87l.21,4.13.23,3.05c.76,6.83,1.27,10.94,2.07,14.93.31,2.08.63,4.12.96,6.13-.33-1.96-.64-3.94-.93-5.98,1.02,5.02,2.52,9.91,5.58,19.87ZM95.88,406.05c.32.55.64,1.06.94,1.57-.23-.36-.47-.73-.71-1.1,2.04,4,4.18,7.72,6.25,11.31l-2.36-3.43-1.21-1.87c-1.76-3.22-4.22-7.49-5.68-10.86-15.01-27.74-22.07-47.05-26.43-69.31,4.53,22.89,11.92,41.37,26.01,68.26-.14-.47-.27-.91-.4-1.37-6.4-15.18-7.01-27.22-7.53-37.4,0,0,0,.01.01.02-.21-.4-.43-.83-.64-1.29h0c-1.62-3.57-2.66-8.35-1.61-9.78.07-.07.17-.16.26-.2,2.2-.98,6.92,10.54,5.67,13.85-.47,1.24-1.67.58-2.96-1.37.03.05.05.09.09.14.05,12.98,2.34,23.32,5.59,32.11-3.14-11.66-3.68-20.54,1.01-36.94-2.33-4.44-2.9-10.72-.27-11.1.43-.06.85.11,1.16.24,2.97,1.72,4.77,6.9,5.09,10.03.44,4.21-1.21,6.05-3.59,4.02-.53-.45-1.03-1.02-1.48-1.67-2.86,11.84-5.54,23.08-.72,38.5,1.1,2.68,2.29,5.21,3.51,7.63ZM84.83,361.97c.2.37.37.64.53.9-.18-.28-.36-.58-.53-.9ZM100.95,415.73c-1.71-2.73-3.22-5.36-4.58-7.92,1.07,2.09,2.19,4.19,3.28,5.99l1.3,1.93ZM94.25,403.59s-.04-.06-.06-.09c.28.55.59,1.18.9,1.78-.28-.57-.58-1.14-.85-1.7ZM136.59,208.34c1.47-2.97,2.23-7.79-.68-9.19-4.12-1.48-9.56,6.74-7.87,11.89,1.29,3.94,6.01,2.45,8.55-2.7ZM145.41,338.08c-.22-.28-.41-.57-.6-.86.05.08.1.16.17.27-15.53,13.78-17.33,15.6-27.33,25.72-7.6-45.44-4.84-71.92-.1-104.36-5.03-5.44-11.46-12.96-16.02-18.81-.82,15.57-1.76,33.23,1.26,57.12-11.54,10.09-25.89,22.65-30.93,38-.03-.12-2.31-12.59,29.59-39.26-1.43-16.16-3.04-34.47-.87-57.23-3.08-4.9-6.73-11.7-9.27-16.9h0c-8.17,30.34-8.67,49.34-8.52,77.02-10.58-5.99-10.69-6.11-16.95-12.37,0-.06,0-.13,0-.19-.21,3.61-.77,5.88-1.36,5.42-1.57-1.24-1.29-16.25.3-16.07.13.02.24.18.3.28.67,1.43.91,5.12.84,8.52,0-.02,0-.04,0-.06,5.56,5.75,5.75,5.86,15.89,11.82-.92-35.6,3.98-55.19,9.65-77.88,2.46,5.51,6.29,12.62,9.37,17.81,2.02-13.57,4.78-32.15,12.07-51.83,0,0,0,0,0,0-1.8-.01-2.03-2.84-.32-6.54.93-.45,1.98-.95,3.05-1.47l-3.05,1.47c-4.45,2.29-10.3,5.51-14.65,7.98-2.61,5.45-5.64,12.92-8.03,18.47-.05-.04-.1-.05-.14-.07.12.06.22.14.27.19,1.16,1.56.18,6.17-1.43,9.72-1.77,3.91-3.9,5.67-4.65,3.84-1.46-3.58,3.22-14.74,5.76-13.77-.08-.03-.18-.04-.38-.05,2.09-5.41,5.35-12.43,7.66-17.75-15.69,10.25-18.92,14.36-22.89,22.6l-.62,2.6-3.43,10.28c-.05.18-.09.34-.14.53.02-.09.03-.17.05-.26l.73-2.61,2.33-7.15.67-2.57.68-2c4.51-9.84,9.33-14.04,23.56-23.38,5.18-9.57,12.59-22.07,18.49-31.22-9,7.76-18.31,15.79-26.93,26.86,4.72-13.54,6.88-19.72,17.44-34.78l1.72-2.34c3.6-4.57,8.73-10.41,12.62-14.74,0,0-.01.02-.02.03.25-.31.5-.62.74-.91h0c1.9-2.29,4.39-4.95,6-6.46,4.81-5.31,7.84-7.88,9.6-9.09-3.51,3.52-6.25,6.28-8.58,8.67-1.62,2.3-8.08,9.84-9.25,10.21-3.42,4.17-7.1,9.12-13.46,17.71,10.84-10.58,21.94-16.83,34.8-24.08-6.79,7.42-15.42,17.72-21.66,25.61,9.47-7.05,19.27-14.33,35.39-23.96-.03.06-.04.13-.07.19,1.99-3.51,8.3-8.97,10.63-7.86,1.18,1.1-1.7,4.74-4.13,6.97-3.68,3.39-7.15,4.67-7.13,2.64,0-.31.12-.68.29-1.07-.03.03-.03.08-.07.11-12.05,8.51-24.89,15.87-36.44,25.1-7.34,10.35-7.56,10.75-19.05,31.85,4.36-2.5,10.28-5.64,14.74-7.96,2.24-3.5,4.83-5.48,6.3-4.81.51.31.68.77.78,1.41.25-.11.57-.27.82-.38-.26.66-.39,1.06-.55,1.68l-.31.14c-.38,2.34-1.49,4.46-2.36,5.83-1.39,2.18-3.09,3.85-4.46,4.39.02,0,.05-.01.07-.02-4.77,14.88-9.71,30.26-12.15,53.44,4.62,6.64,4.84,6.88,16.17,19.21,3.87-19.25,4.01-19.7,11.81-43.57.39.14.52.16.93.2h.08c-6.16,18.52-6.47,19.98-11.73,44.47,3.16,3.11,7.56,7.06,10.82,10.08,1.17-2.16,3.05-3.58,5.26-3.18.11.02.26.06.37.09,3.39,1.08,4.63,5.96,3.66,9.85-1.42,5.69-6.36,7.5-9.12,3.34-1.63-2.46-1.74-5.7-.89-8.39-3.25-2.78-7.35-6.71-10.49-9.6-7.67,46.75-3.47,77.4-.41,99.77,11.75-11.8,12.01-12.03,25.89-23.69-2.47-5.25-.27-11.83,4.53-11.27.15.02.35.06.5.09,4.72,1.41,6.07,6.83,5.82,9.91-.51,6.09-5.88,7.95-9.58,3.33ZM117.96,150.95c5.78-7.56,13.96-17.28,20.25-24.43-19.18,10.61-25.56,16.51-33.64,23.99,5.95-8.25,10.93-14.77,15.11-19.97,0,0-.02,0-.02,0,0-.22.32-.74.78-1.36-3.71,4.52-8.81,10.21-12.65,14.93-8.12,11.94-12.03,17.97-17.1,33.55,6.45-7.45,13.77-15.9,27.28-26.73ZM113.11,184.2c.14-.02.28-.05.43-.09-.15.04-.3.08-.43.09ZM144.55,336.8c-.07-.13-.14-.26-.21-.39.08.15.14.27.21.39ZM71.86,335.16h0s0,0,0,0h0ZM69.93,222.25c-.73,2.76-1.42,5.78-1.76,8.44.44-2.17,1.01-4.88,1.76-8.44ZM129.85,164.5c-3.42-1.72-9.75,7.49-9.01,11.45.54,2.88,4.13,1.51,7.11-2.72h0c1.77-2.51,3.86-7.1,1.9-8.74ZM65.55,256.55c.42.74,1.27-1.3,2.01-4.86.78-3.74,1.31-8.72.83-10.25-.05-.1-.15-.23-.24-.29-.39.13-.77.93-1.13,2.07.62-3.4.69-7.97.98-11.38.03-.36.11-.77.16-1.15-1.39,6.89-1.44,8.36-1.57,14.12-.99,4.25-1.59,10.78-1.04,11.73ZM148.08,102.58s.07-.12.09-.18c-.66-.22-10.98,8.63-11.15,9.56.09,0,.37-.01,3.98-3.02.6-.5,5.87-4.9,7.08-6.37ZM101.66,415.13c-1.35-2.07-2.93-4.54-4.84-7.52,1.67,2.77,3.06,4.95,4.84,7.52ZM65.55,326.19c-.06-.32-.11-.66-.16-.98.05.33.11.66.16.98ZM66.68,332.35c-.04-.19-.07-.39-.11-.58.04.19.07.39.11.58ZM65.55,326.19c.32,1.89.66,3.75,1.02,5.58-.36-1.84-.7-3.7-1.02-5.58ZM115.51,433.48c-.29-.22-.35-.23-.46-.25-.01,0-.02.02-.04.03,0,0,0,0,0-.01-7-9.33-10.64-14.18-13.36-18.11,5.95,9.18,7.42,11,13.4,18.39,0-.03,0-.07-.01-.11.38,1.61,8.47,11.14,9.51,11.14.02-.1.1-.42-2.14-3.33-1.83-2.38-5.18-6.35-6.89-7.74ZM162.94,243.78c5.19-44.57,15.01-67.87,23.67-88.42q-37.07,22.38-53.39,32.58c4.65-20.49,5.15-21.71,13.51-41.99-.06.02-.13.05-.2.07,1.36-.56,3.05-1.8,4.7-3.61,2.02-2.22,4.62-6.25,3.02-7.64-2.81-1.37-10.89,6.72-10.42,10.43.14,1.11,1.05,1.37,2.31.96-.14.05-.28.09-.4.13-8.97,20.9-9.07,21.34-14.21,44.32,13.83-8.85,29.22-18.18,52.53-32.3-16.23,36.16-19.92,65.84-22.37,85.47.1,0,.21,0,.32-.01-4.66.27-8.2,7.68-5.45,12.58,2.59,4.61,8.46,2.95,10.3-2.91,1.02-3.26.57-8.4-3.64-9.6-.26-.05-.51-.07-.76-.08.13,0,.27,0,.38.01h0s.06,0,.09.01ZM515.52,308.14c-2.12-24.03-2.3-25.99-6.53-45.07l-.05.05c-.14.15-.22.22-.31.3,1.36-1.15,2.06-4.5,1.34-8.37-.73-3.95-2.84-7.44-5.08-6.42-3.15,1.91-2.19,12.11,1.39,14.75.81.6,1.55.6,2.18.18-.03.02-.04.03-.08.06,4.45,23.48,5.03,26.5,6.28,44.38h0s.87.14.87.14ZM526.32,349.23c.51.61-.79,5.22-1.06,6.14-1.37,4.7-3.21,9.06-3.66,8.63-.1-.09-.1-.42-.06-.89,0,.03,0,.08-.01.11-9.95,20.64-10.2,21.01-23.57,40.63,15.85-38.21,16.94-61.89,16.79-93.65-5.16-.83-12.05-1.93-17.22-2.74,3.43,13.52,7.31,28.84,8.07,47.26-9.83,15.15-24.68,38.04-56.52,66.46-.03-.09-.06-.19-.09-.3.25,1.09-.03,2.51-.6,3.78-2.51,5.52-9.04,8.83-10.42,5.29-1.06-2.7,1.94-7.98,6.12-10.09-1.21-.04-2.2-.58-2.74-1.79,0,.02.01.03.02.05-8.04,5.9-14.7,10.49-20.97,14.55,3.9,16.08,3.32,25.89.35,39.38,19.39-15.58,33.66-27.65,54.57-52.5.02.05.04.12.06.18-.59-2.4,3.13-9.66,7.27-11.73,2.41-.9,2.29,1.74.95,4.68-.08.18-.2.42-.29.6-2.52,5.02-6.97,8.75-7.86,6.67.02.07.05.14.07.2-15.73,18.31-28.89,32.82-55.1,52.86h0,0c-3.45,10.1-8.55,15.34-8.59,15.36-.56.27-1.07.55-1.24.64q3.76-4.55,8.29-14.84c-3.05,2.17-6.6,4.67-10.19,7.16.07.71.13,1.43.18,2.19-2.93,1.06-5.01,1.81-7.01,2.49-1.7,1.14-3.34,2.24-4.87,3.24-.92-.27-1.84-.53-2.76-.8-2.66.81-6.02,1.82-10.75,3.24,1.17,1.5,2.14,2.75,2.9,3.91.7-.3,1.43-.61,2.22-.94,14.01-5.91,16.16-5.96,16.46-5.35-.46,1.8-9.32,6.02-17.34,9,.48,1.54.42,3.07-.4,4.97,2.37-1.06,4.41-1.81,4.66-1.51-.02.12-.18.29-.41.47,4.22-1.58,8.65-3.37,13.81-5.46-2.24-.17-5.27-.35-12.85-.28,1-.41,2.12-.89,3.58-1.56.66-.31,10.92-.07,12.91.12,6.23-3.17,14.27-7.91,20.29-11.49l-3.7,2.37-.7.44c-4.58,2.82-10.95,6.12-15.66,8.7.09.03.21.08.31.11-.01,0-.03.01-.04.02l-3.43,1.77c-.09-.11-.29-.16-.43-.18-5.68,2.48-10.6,4.46-15.09,6.1-.69.41-1.45.81-1.87,1.03-.15.08-.35.18-.5.25-3.44,1.71-8.23,3.59-8.99,3.53,0-.03,0-.07-.01-.1.33-.35,1.63-1.12,3.28-1.99-9.66,2.97-18.12,4.53-29.74,6.57-.04.09-.09.2-.13.29-.03,0-.06.02-.09.03-.64.18-1.18.37-1.35.43l.05-.11.09-.38h0c-.03.12-.06.26-.09.38-.09.03-.21.08-.3.11h0c-2.53.93-4.94,1.33-5.73.95-.06-.03-.05-.08-.09-.11-2.6.52-5.02.92-7.37,1.27-8.3,1.97-15.74,3.58-26.24,5.19-1.82.85-4.4,1.65-6.36,2.09h0l-.71.02c1.81-.28,4.1-1.2,5.78-1.91-8.82,1.14-13.25,1.71-20.92,1.74-6.74-1.08-20.75-3.32-50.48-21.25.02-.01.04-.02.06-.04-.77.34-2.04.33-3.68-.14-5.17-1.5-9.19-5.83-6.62-7.12,2.18-1.09,7.97,1.01,10.49,4.42.07.11.17.25.23.37.6,1.05.5,1.82-.08,2.27.02-.01.05-.03.07-.04,21.42,12,33.36,18.4,49.86,21.47,6.87-.23,10.13-.39,21.78-2.08,2.08-1.24,2.82-1.7,5.21-3.71-5.41-.29-9.5-1.04-12.48-1.82-8.42,1.03-15.85,1.68-25.95,2.35-5.44-6.57-7.67-11.84-11.72-21.4-1.71-.2-3.55-.88-5.07-2.12-3.28-2.67-2.46-6.04,1.6-6.56,3.83-.49,8.28,1.89,8.97,4.8.02.12.05.27.07.39.22,2.13-1.59,3.36-3.98,3.53,4.53,11.88,7.12,15.62,10.71,20.78,9.34-.66,16.24-1.27,23.85-2.19-1.38-.41-2.48-.8-3.29-1.09,1.06.41,2.22.74,3.37,1.08,6.09-.74,12.64-1.69,21.29-3.03-2.75,2.56-4.01,3.69-5.88,5.07,6.29.11,13.38-.46,21.26-1.71,1.95-.47,4.04-.99,6.39-1.59-.03.04-.06.1-.09.15.79-1.1,3.62-2.76,6.88-3.59-.2.85-.44,1.89-.66,2.83h0l.66-2.83c-.26-2.94-1.17-6.81-2.04-9.63-4.67.93-10.93,2-15.62,2.83.02-.09.03-.12.04-.19-.04.15-.08.31-.16.48-.05.09-.11.22-.17.31-2.19,3.57-10.09,4.69-11.12,1.58-1.05-3.16,6.39-6.56,10.21-4.66.43.22,1.25.74,1.31,1.69,4.56-.8,10.63-1.99,15.17-2.85-5.79-13.41-19.06-31.32-35.85-53.99-9.43,17.16-16.29,29.25-19.98,35.75-.62-.24-.94-.34-1.62-.49,7.07-13.05,14.25-26.05,21.35-39.09,27.44,37.19,31.67,44.1,37.84,57.47,12.17-2.56,13.14-2.81,29.37-6.99-3.99-3.52-6.47-5.69-13.33-10.64-5.37-1.48-10.74-2.98-16.08-4.57-3.07,2.9-8.96,3.46-10.3.27-1.12-2.65,1.99-6.45,7.09-6.95,4.14-.21,5.75,2.27,4.66,4.72-.15.34-.35.66-.57.97,4.51,1.25,8.51,2.35,12.1,3.34-2.2-1.55-4.77-3.35-7.83-5.47,11.63-13.76,35.81-42.39,57.22-81.57,0,0,0,0,0,0-.75-.4-1.43-.98-1.97-1.79-3.92-5.88,3.33-15.73,10.48-14.23,1.16.24,4.92,1.47,4.45,7.06-.02.13-.04.31-.06.44-.98,5.89-6.81,9.88-11.21,9.12-11.73,20.65-23.87,42.01-56.49,80.37,4.43,3.1,7.82,5.49,10.64,7.52,17.73,4.9,22.9,6.33,25.64,7.14,1.93-.63,4.31-1.43,7.5-2.5,1.41-.97,2.86-1.96,4.33-2.97-1.44-10.98-5.16-17.21-16.99-32.65,11.42-6.4,17.9-10.1,28.38-16.96-1.4-5.44-3.24-11.43-5.53-18.36-12.68,18.09-16.37,22.58-28.57,37.43-.29-.15-.47-.23-.68-.3,2.14.72,2.74,2.77,1.78,4.86-2.31,5.05-10.74,7.3-12.36,3.3-1.19-2.93,2.48-7.61,7.84-8.39,1.05-.11,1.93-.02,2.65.21-.15-.05-.32-.09-.56-.15q15.89-19.43,30.61-40.66c2.82,8.2,4.93,15.02,6.44,21,5.49-3.62,12.09-8.1,20.98-14.23-.91-5.43,6.65-13.94,11.42-12.13.69.26,2.83,1.46,1.59,5.91-.1.29-.23.68-.34.97h0c-1.39,3.47-4.11,6.2-6.69,7.44,1.02.09,1.61.61,1.9,1.35-.02-.05-.03-.11-.05-.16,17.76-17.07,37.89-36.41,55.72-65.66-1.11-12.25-2.49-27.5-8.44-47.44-5.82-.91-13.58-2.13-19.41-3.05h0c7.53,31.85,7.35,50.17,7.17,69.56-16.36,6.56-20.51,7.86-37.43,12.94.03-.15.05-.26.07-.37-1.18,6.21-8.41,10.44-11.29,6.56-2.78-3.75,1.07-11.34,6.35-12.5,4-.65,5.54,2.5,4.97,5.81.08-.46.1-.72.12-1.32,18.61-5.52,22.3-6.96,36.03-12.35.9-29.73-3.47-49.68-8.09-70.8,6.24.99,14.56,2.29,20.8,3.26-4.57-12.98-9.74-27.7-19.87-46.89.08-.08.17-.19.26-.28-2.05,2.12-5.29,1.07-7.18-2.94.83-1.54,1.8-3.33,2.77-5.12l-2.77,5.12c-4.02,6.51-9.79,14.93-14.2,21.18,1.79,5.77,3.79,13.58,5.4,19.41-.12.04-.19.09-.29.13.22-.09.43-.19.66-.25,3.92-.78,6.29,3.06,6.32,7.22.04,6.52-5.39,10.79-9.08,7.14-3.55-3.51-2.65-10.86,1.06-13.54-1.43-5.62-3.65-13.02-5.22-18.6-22.54,28.66-43.73,45.97-66.02,63.77.08.99.16,1.98.23,2.97,10.67,3.48,14.36,4.66,28,8.82,6.75-7,12.36-13.47,19.85-22.1-3.22-5.39-.33-14.83,6.22-16.36,3.74-.76,7.1,1.88,7.97,6.29,1.68,8.44-5.87,16.4-11.87,12.53-.35-.23-.67-.49-.97-.77.02.02.03.04.05.05-7.54,8.84-12.86,14.96-18.78,21.11,2.94.9,6.26,1.91,10.19,3.1-.41.85-.5,1.08-.77,1.97-4.34-1.31-7.96-2.41-11.09-3.36-7.09,7.24-15.34,14.88-29.31,27.37-.42-13.48-1.02-25.55-1.89-37.2-1.45-.47-3-.98-4.7-1.54,1.48-1.15,2.91-2.27,4.32-3.38-1.76-21.29-4.54-41.55-9.02-66.66-11.94-4.54-24.27-9.52-38.3-15.65,7.58,16.78,15.2,33.55,22.75,50.35-40.62,36.22-73.51,59.88-93.17,74.02-.07-.11-.11-.17-.17-.26.93,1.46,1.48,3.15,1.49,4.93.01,7.86-9.78,11.13-15.64,5.22-5.9-5.95-2.11-15.12,6.13-14.86,2.59.14,4.94,1.27,6.66,2.99,38.74-27.69,63.78-48.34,91.62-72.67-7.4-16.55-14.84-33.08-22.24-49.63-2.42,3.32-7.39,4.05-10.62.5-3.97-4.36-2.01-12.39,4.58-12.89.19,0,.35.04.53.06-.44-.99-.89-1.98-1.33-2.97-13.36-4.01-14.56-4.43-34.65-11.33,5.78,30.15,11.54,55.25,20.25,93.25-30.48,1.68-40.38,1.71-67.08,1.57,0-.08,0-.14.01-.22-.69,8.33-10.08,11.58-15.56,5.33-5.78-6.6-1.5-17.07,6.74-16.47,5.87.59,9.13,6.11,8.83,10.93.05-.78.03-1.28-.08-2.2,29.09.3,40.75-.26,63.97-1.38-11.66-51.2-14.44-65.03-20.02-94.5,14,5.05,16.11,5.71,36.29,12.04-9.38-21.78-13.52-31.87-18.12-43.99-1.08,4.31-2.55,9.9-5.19,19.98-.42-.2-.75-.32-1.1-.42,2.53.75,4.87,3.18,5.08,7.03,0,.08,0,.19,0,.27-.1,6.37-7.46,9.51-11.59,4.94-4.36-4.83-.88-12.98,5.33-12.46.32.03.65.09.97.18-.12-.03-.22-.07-.37-.1,2.64-9.5,3.22-11.57,5.8-22.26-1.19-3.16-2.44-6.54-3.83-10.32-5.91.6-12.38,1.22-17.61,1.67-.28-1.16-.57-2.36-.86-3.57-3.3,2.32-7.58,5.21-16.26,11.07.32,7.01.93,16.36,1.38,23.36-.22,0-.38.04-.57.06.32-.03.63-.07.96-.05h0c4.51.3,7.75,4.53,7.38,9.63-.56,7.77-9,11.68-13.9,6.44-4.92-5.27-1.52-14.86,5.01-15.96-.41.07-.75.16-.99.23-.45-6.73-.87-15.72-1.21-22.45-32.19,20.59-56.52,33.81-92.77,53.13,17.52,14.35,27.03,20.43,44.31,31.47-.13.21-.2.36-.31.54,1.54-2.82,4.35-4.83,8.16-4.6,4.69.4,8.19,5.09,7.8,10.45-.61,8.31-9.45,12.08-14.78,6.32-2.99-3.24-3.21-8.26-1.29-11.97-.27.5-.48.95-.7,1.54-24-15.15-30.5-20.25-47.42-34.09,51.88-27.49,68.1-36.96,96.92-55.25h0c-.43-17.78-.34-20.25.34-39.5-16.69,18.72-22.06,24.19-42.1,44.3-29.07-24.54-36.94-39.35-43.59-54.84-2.93,2.31-5.97,3.28-7.05,1.37-2.29-4.04,7.54-14.68,12.36-13.39,1.11.36,1.44,1.7.87,3.59-.74,2.44-2.44,4.9-4.39,6.85,9.34,24.69,28.23,41.36,42.03,53.53,22.72-22.66,27.47-27.84,42.03-44.07.81-12.24.96-13.27,3.44-30.59-19.67,17.11-40.88,31.67-57.92,43.36,1.23-24.73,3.53-31.02,9.69-47.79-1.24.39-2.24.3-2.74-.48-1.91-3.02,7.7-12.52,11.82-11.68.96.25.98,1.17.82,1.91-.73,3.47-4.91,7.74-8.33,9.57-7.43,18.75-8.01,26.52-9.43,45.28,33.38-22.62,46.41-33.72,57.9-43.51-1.95,11.83-2.13,14.13-3.55,31.96,3.06-3.65,5.66-6.78,7.93-9.56-.86-7.94-1.32-16.17-1.15-24.54.16-.05.35-.13.54-.21-1.29.54-2.56.26-3.2-1.01-1.64-3.27,2.3-9.76,5.34-8.79,1.21.39,2.07,2.26,1.39,5.11-.03.1-.07.24-.1.35-.66,2.18-1.95,3.64-3.24,4.26.08-.03.16-.07.23-.1.16,6.12.36,13.67,1.4,23.44,6.17-7.65,9.78-12.68,13.79-18.85-2.08-3.18.08-9.36,3.33-9.01.66.07,1.26.43,1.76.99.14-.23.27-.43.41-.66.15.26.24.39.35.54-2.59-3.47-1.09-10.75,2.61-10.91,1.98-.01,3.83,2.8,4.05,6.13.11,1.79-.27,3.23-.89,4.31,6.84-3.38,11.66-6.31,15.66-8.76,1.03,14.17,1.05,25.56-.33,39.09,6.29,10.67,11.61,18.58,21.61,33.28,9.99-14.1,15.62-25.13,18.98-33.96-5.5-.25-11.4-.6-17.77-1.1-.08-.67-.13-.88-.29-1.44,1.34,4.44-1.68,7.59-5.4,5.62-4.45-2.36-5.5-9.8-1.56-11.06,1.13-.36,4.82-.16,6.93,5.31,4.61.32,10.94.76,18.66,1.1,2.02-5.61,3.14-10.3,3.9-14.3-10.57-6.78-16.62-10.98-24.88-16.73.09-.45.09-.57.07-1.04,9.11,6.32,12.57,8.71,25.02,16.66.22-1.24.43-2.43.61-3.55,2.05,2.62,4.01,5.18,5.92,7.7.26.16.48.31.74.47-4.25-22.6-12.18-32.14-21.37-43.18,7.38,4.45,17.13,10.52,24.41,15.13-11.36-11.66-17.62-18.08-32.63-26.44.25.07.4.11.54.14-1.62-.37-5.17-1.83-9.02-3.77q4.28.52,4.53.62c.1.04.24.1.35.15,3.26,1.4,5.04,2.56,5.07,2.95.01.16-.25.18-.7.1.04,0,.07.01.12.02,13.84,8.75,22.19,14.03,33.66,27.48q9.65,6.33,27.69,19.12c-5.37-11.05-6.37-12.31-15.96-24.29.49.22.78.34,1.2.49l.08.03c8.46,9.9,9.05,11.03,16.3,24.96,4.5,3.31,10.38,7.87,14.82,11.26.1-.27.24-.5.49-.66,1.23-.79,4.58.62,7.83,4.27.1.11.22.26.32.38h0c3.02,3.69,3.24,6.95.43,6.59-3.67-.48-8.92-6.6-9.17-9.72-4.21-3.3-9.9-7.56-14.14-10.8,10.77,27.39,7.82,47.13,4.53,66.02.34.61.67,1.22,1,1.83,10.98-.9,14.72-1.24,31.4-3.32-1.01-2.78-.92-5.52,1.19-6.47.08-.02.16,0,.25-.02,1.65-.68,4.96.43,7.63,5.15.01.02.03.06.04.08,2.09,4.01,1.46,7.53-.88,8.08-.67.3-1.5.32-2.5-.07-.27-.11-.54-.24-.8-.4.02.02.05.04.08.05-.6,12.37-1.29,26.39-7.57,47.2h0q5.06,12.05,13.05,35.24c4.46-6.2,10.04-14.73,14.12-21.19-.95-4.22.05-7.81,2.5-8.94.93-.35,1.59-.27,2.36-.03.15-.3.35-.7.5-1,.24.38.45.66.67.93-2.98-3.73-3.72-11.14.02-12.77,3.38-.86,5.99,3.37,6.76,6.65h0c1.36,5.8-1.62,10.02-5.32,7.52-.47-.32-.91-.74-1.32-1.21.09.11.17.21.28.33l-.19.38c1.93,1.64,2.75,3.92,3.1,5.54.43,2.01.33,4.16-.27,5.75-.18.46-.39.84-.62,1.19.04-.06.09-.12.13-.17,7.04,14.17,14.33,28.83,20.36,48.26q8.33,1.29,17.79,2.81l.87.14c2.17.36,5.05.87,7.21,1.25,0,.04-.01.09-.02.13-.09.64-.16,1.31-.21,2.01-2.06-.37-4.82-.84-6.88-1.19,1.25,44.77-7.66,68.66-15.52,89.74,11.52-17.17,11.9-17.95,21.57-37.9-.01.07-.02.15-.03.22.54-3.29,2.78-10.67,4.31-12.91.2-.23.24-.26.37-.27ZM266.45,382.13c-.15-.21-.34-.44-.61-.74.21.24.42.48.61.74ZM436.02,331.99s.04.05.06.07c-.02-.02-.04-.05-.06-.07ZM412.86,190.21c3.59,6.59,6.98,13.1,10.33,19.67.66-1.43,1.32-2.87,2.01-4.36,1.32,2.66,2.74,5.6,4.2,8.65,2.84,1.39,5.14,4.6,5.91,7.96.4,1.74.38,3.33.06,4.71,1.54,3.31,3.01,6.53,4.32,9.44,2.99-11.79,7.08-27.94,7.55-45.47,0,0,.01,0,.02.01-1.26-1-2.38-2.45-3.2-4.01-11.29,1.7-22.03,2.66-31.19,3.4ZM447.51,191c.1.07.2.14.3.21-.1-.07-.2-.14-.3-.21ZM383.4,254.93c-6.28-8.71-9.95-13.8-12.95-17.96,1.25,5.47,2.42,10.73,3.57,15.9,2.84.64,6.08,1.35,9.38,2.06ZM374.58,255.57c1.21,6.05,2.3,11.77,3.31,17.27,10.91,4.14,22.64,8.32,40.24,14.47,6.96-13.75,14.86-29.33,20.89-48.79-1.31-3-2.81-6.33-4.37-9.75-1.64,3.02-5.14,4.15-8.72,1.77-3.82-2.54-5.48-7.53-4.9-11.48-6.6,13.3-13.73,23.8-21.52,34.18,1.06-.97,2.4-1.68,4.07-2h0c3.96-.65,8.89,2.5,9.91,8.22,1.44,8.06-5.98,13.77-12.4,9.55-4.35-2.86-5.56-9.12-3.34-13.43-.53.69-1.06,1.39-1.59,2.08.24.05.5.11.73.15-.27,1.16-.29,1.94-.3,2.51-.69-.14-1.41-.29-2.14-.44-1.27,1.65-2.56,3.31-3.87,5-1.81-2.51-3.45-4.78-4.97-6.88-3.86-.84-7.71-1.69-11.02-2.41ZM390.59,261.68c.62-.77,1.18-1.5,1.77-2.24-1.31-.28-2.65-.56-4.03-.86.73,1,1.47,2.02,2.26,3.1ZM425.42,213.52h0c.73-.14,1.45-.09,2.16.04-.7-1.47-1.38-2.91-2.03-4.27-.41.95-.82,1.86-1.24,2.78.26.51.52,1.01.78,1.52-.3.11-.5.19-.68.27.32-.14.65-.27,1.01-.35ZM423.36,214.18c-.09.2-.18.39-.28.58.36-.33.74-.62,1.19-.84-.23.11-.44.24-.8.48-.04-.08-.08-.15-.11-.23ZM377.76,100.48c9.74,13.22,15.11,20.51,21.78,37.84-5.18.12-11.49.27-18.97.25,11.97,16.77,21.06,31.51,29.01,45.69,5.86-30.87,1.84-45.99-4.85-64.9-8.85-6.52-9.19-6.76-26.97-18.89ZM373.13,127.98c-.22-.14-.41-.26-.62-.39,2.41,3.21,4.72,6.35,6.93,9.42,5.72.04,11.85-.02,18.34-.21-6.9-15.54-10.71-24.1-21.92-37.58-6.86-4.45-16.09-10.27-23.04-14.59,14.03,15.73,16.95,28.53,20.33,43.36ZM366.04,122.26c.67.43,1.33.85,2.05,1.31-.63-.84-1.25-1.69-1.85-2.5-.05.4-.14.79-.2,1.19ZM362.36,136.61c4.71.19,9.9.33,15.51.38-2.87-4.04-5.55-7.71-8.06-11.1-1.39-.88-2.7-1.71-3.96-2.51-.78,4.51-1.98,8.94-3.5,13.23ZM278.48,138.05c1.21,10.52,3.41,23.54,7.49,40,2.14-1.54,4.7-3.41,7.99-5.79l7.31-5.68c-2.44,1.89-5.14,4-7.31,5.68.29-5.37,3.64-8.23,6.8-8.27,1.43,0,2.45.57,2.84.78l1.01-.82c-1.97-4.85.38-11.3,5.32-11.49,2.1-.02,4.05,1.27,5.36,3.25,1.01-6.11,1.77-11.49,2.33-16.32-1.88-3.26-3.85-6.75-6.16-10.86.36-.25.5-.37.74-.62-1.55,1.6-3.9,1.8-5.92-.14-3.94-3.79-2.6-12.35,1.96-12.54,2.91-.02,5.65,3.88,5.63,8.03,0,1.87-.58,3.38-1.45,4.41.04-.05.07-.08.12-.14,1.94,3.46,3.68,6.53,5.35,9.38,1.6-15.11,1.19-24.74.75-35.18-8.95,5.34-10.67,6.13-20.18,10.56-.08-.56-.11-.7-.26-1.24.54-.25,1.03-.48,1.55-.72-.43-.14-.86-.35-1.25-.71-.18-.16-.34-.35-.49-.54.09.11.2.23.36.41-.17.27-.32.52-.48.78.39.86.63,1.89.62,3.01,0,.13,0,.29-.02.42-.26,3.8-3.26,5.94-5.48,4.39-4.45,6.94-8.22,12.12-14.53,19.96ZM304.99,181.2c1.95-.2,3.83-.4,5.56-.59.93-4.43,1.76-8.57,2.51-12.47-1.93.91-4.27.69-6.32-1.14-.47-.42-.87-.9-1.22-1.41.03.05.06.11.1.16-.12.1-.27.22-.39.32,3.42,3.74,3.27,9.97-.32,13.06-.22.19-.44.33-.66.48.04-.02.08-.04.12-.06.21.57.41,1.09.62,1.64ZM284.65,179c-2.7-11.44-5.66-24.93-7.36-39.48-2.37,2.92-5.09,6.21-8.32,10.09-.66,16.69-.58,20.28-.14,40.24,7.07-4.65,8.87-5.84,15.82-10.85ZM303,181.4c-.12-.32-.23-.62-.35-.94-4.56,1.55-8.62-3.57-8.43-5.81.05-.04.1-.08.15-.12-.06.04-.12.1-.18.14-3.25,2.43-5.31,3.96-7.66,5.63.22.88.43,1.72.66,2.62,4.69-.43,10.42-.97,15.8-1.52ZM308.32,190.02c.53-2.18,1.12-4.65,1.81-7.53-1.41.15-2.92.31-4.48.46.95,2.52,1.83,4.86,2.67,7.07ZM329.57,241.18c18.09,5.23,21.74,6.13,41.98,11.11-1.49-7.16-2.95-13.73-4.39-19.9-2.23-3.11-4.52-6.31-7.87-11,.68-.45.81-.57,1.33-1.11,2.22,3.09,3.93,5.47,5.49,7.64-2.58-10.82-5.05-20.32-7.34-29.09.25-.01.41-.05.61-.07-1.9.26-4.03-.31-5.94-1.96-5.75-4.93-4.48-14.67,2.01-15.32,5.02-.32,9.16,4.8,9.49,9.58.3,4.25-2.21,7.16-5.4,7.67.46-.07.84-.16,1.19-.28,3.61,13.01,6.33,23.98,8.69,34.04,3.54,4.89,7.65,10.56,16.71,23.02,2.74.59,5.47,1.16,8,1.7,15.53-19.94,21.81-31.76,28.12-45.28-3.79-7.7-7.52-14.9-11.15-21.58-.94.08-1.89.15-2.8.22.29-1.33.53-2.58.79-3.86-11.15-20.16-21.37-35.75-30.1-48.14-5.17-.03-10.91-.14-17.21-.4-5.53,14.76-14.47,27.83-21,37.35-11.31-16.6-16.49-24.69-22.05-34.24-.58,5.12-1.36,10.59-2.36,16.64.28.82.49,1.68.55,2.59.19,2.7-.69,4.92-2.11,6.37-.77,4.21-1.62,8.69-2.58,13.53,23.43-3.1,36.93-5.25,59.81-10.58-.9-3.02-.1-6.11,2.7-6.83,2.94-.75,6.69,1.84,8.19,5.65.06.19.16.43.22.62,1.58,5.15-2.4,8.51-6.97,5.88-1.52-.87-2.67-2.17-3.43-3.6-15.51,3.51-31.56,7.14-60.92,10.72-.99,4.48-1.64,7.39-2.41,10.59,5.96,15.57,9.96,24.92,20.16,48.31ZM375.25,271.83c-.97-5.38-2.01-10.95-3.14-16.84-17.88-4.28-20.99-5.16-41.22-10.84.44.98.88,1.95,1.32,2.93,2.62,1.43,4.16,4.43,4.03,7.32h0c-.02.44-.08.86-.15,1.26.05.1.09.21.14.31,16.56,6.95,27.57,11.46,39.02,15.85ZM387.64,346.58c.74,10.15,1.27,20.37,1.69,31.35,10.78-9.65,18.18-16.69,24.46-23.11-11.46-3.48-15.76-4.84-26.16-8.24ZM384.89,343.19c-.08.06-.15.12-.23.18.09.03.16.05.25.08,0-.09-.01-.18-.02-.26ZM452.61,275.46c-3.55-10.43-8.58-24.24-12.58-34.51-4.7,13.32-10.03,28.43-21.12,48.8-14.43-5.05-27.34-9.58-40.6-14.57,4.5,24.8,7.08,44.5,8.73,63.8,34.65-27.4,47.06-40.92,65.57-63.51ZM459.12,295.76c-.17.09-.31.18-.43.26.14-.09.28-.18.43-.26ZM334.43,502.22c.02-.12.03-.24.03-.4,0,.13,0,.26-.03.4ZM344.92,513.34h.05c.01-.06.02-.1.04-.15-.03.05-.07.1-.09.15ZM316.41,516.09c1.11-.94,2.56-2.2,4.62-3.99-6.71,1.01-12.22,1.79-17.36,2.42,3.75.93,8.03,1.43,12.73,1.57ZM333.75,515.62c-6.5.78-11.98.96-16.56.78-1.21.88-2.7,1.89-4.98,3.44,8.48-1.48,13.72-2.42,21.53-4.22ZM381.43,492.28c-11.76,3.17-14.86,3.85-29.74,7.12.83,2.84,1.6,6.74,1.81,9.69l-.71,2.9h0c.22-.91.5-2.03.71-2.9.35-.04.94-.11,1.47-.04,1,.13,1.49.7-.13,1.94-.11.08-.26.18-.37.26h0c-.41.27-.8.49-1.15.66,13.31-2.11,22.08-4.19,30.38-6.89.63-.32,1.28-.64,1.94-.95.62-1.99,1-3.35.4-5.14-5.39,1.91-10.09,3.11-11.09,2.4.08-.36.23-.89,9.74-5-.76-1.11-1.81-2.43-3.25-4.07ZM392.86,488.07c-6.76-1.97-13.55-3.85-20.34-5.71,4.02,2.99,6.82,5.35,10.3,8.66,4.53-1.27,6.82-1.92,10.05-2.94ZM400.02,486.64c-1.06.35-2.18.71-3.44,1.1.41.13.8.25,1.24.39.71-.48,1.45-.98,2.2-1.49ZM407.09,482.45c-.85.59-1.7,1.17-2.54,1.74.83-.28,1.71-.57,2.64-.89-.03-.29-.07-.57-.11-.85ZM418.77,433.72c-8.39,5.38-16.21,9.91-25.83,15.49,11.95,16.03,14.71,22.05,15.69,31.53,3.73-2.59,7.43-5.21,10.57-7.51,3.44-14.05,3.22-24.73-.43-39.51ZM441.31,417.98c-.11-.26-.18-.53-.24-.8.06.32.11.48.24.8ZM524.97,303.05c-2.67,2.57-3.29,13.92-1.45,15.62,1.42,1.31,3.31-3.4,3.61-9.01.22-4.18-.59-7.84-2.16-6.61ZM439.98,359.17c.54-3.94-1.6-7.74-6-7.03-6.23,1.65-8.73,9.63-5.61,13.4,3.53,4.25,10.69.32,11.61-6.37ZM362.2,215.09h0c-.24-2.88-2.52-7.45-7.64-7.41-6.16.72-6.91,8.87-2.53,12.76,4.49,3.98,10.67.73,10.17-5.35ZM413.32,487.78c-3.18,1.03-9.59,5.58-9.85,6.71-.23.99,4.44-1.22,8.05-3.82,2.14-1.54,2.67-2.33,2.78-2.53.28-.51-.05-.63-.98-.37ZM532.95,274.28h0c-.02-.23-.04-.54-.06-.77-.34-3.65-1.22-6.91-2.18-5.76-.07.1-.12.24-.18.37.03-.07.06-.15.09-.22,0-.01.02-.03.02-.04-7.48-40.54-21.58-63.95-34.02-84.6,5.01,25.3,2.56,41.11-.28,59.42-12.02-17.34-15.74-21.8-28.08-36.55-.12.45-.17.63-.28.87.62-1.45.56-3.69-.43-6.19-1.11-2.79-4.08-6.92-7.34-6.11-4.18,1.86-.58,11.74,3.94,13.68,1.77.76,3.1.16,3.77-1.24-.04.08-.08.17-.14.28,15.9,19.08,18.45,22.8,29.19,38.43,5.56-26.68,3.54-41.63,1.21-58.95,22.01,35.14,27.63,61.05,32.14,81.87.01-.04.03-.09.04-.13-1.03,3.53-.39,13.33,1.17,14.66,1.08.93,1.82-3.71,1.44-9.01ZM354.19,513.9c.16-.07.37-.18.53-.26,1.23-.64,1.8-1.12,1.69-1.42-.43-1.17-10.11,2.09-10.8,3.63-.45,1,5.32-.44,8.58-1.95ZM190.58,495.36c-.38-.21-.75-.42-1.13-.63,1.02.57,2.14,1.2,3.41,1.92.12.07.28.16.41.23,3.28,1.88,3.49,2.05,3.63,2.16-.91.04-12.95-6.48-13.7-7.43.01-.02.03-.04.05-.06.56.12,2.45,1.08,5.76,2.92-.07-.04-.14-.08-.21-.12-.06-.64.3-1.51.67-2.04.45-.64,1.38-1.18,1.97-1.69-7.79-4.6-18.03-10.98-25.6-15.94-5.74-9.14-13.15-21-13.78-43.12-.86-.85-1.67-1.82-2.4-2.92-3.14-4.78-2.84-9.66,2.23-8.56.14.03.28.09.42.13.17-2.49.39-5.04.72-7.76.36.29.56.43.8.6-6.03-4.16-7.9-12.84-2.97-13.93,3.48-.77,8.98,3.21,10.6,9.31.03.12.06.28.09.4,1.02,5.28-2.88,7.48-7.59,4.31.11.08.24.16.41.27-.12,2.68-.22,5.17-.29,7.57,3.74,2.09,7.21,6.83,7.55,10.41,5.99,3.73,11.78,7.16,17.42,10.37-.8-2.36-.33-4.47,1.9-5.12,3.38-.98,9.41,2.48,11.37,7.76.03.08.06.19.09.28.31,1.03.33,1.92.16,2.67.05-.24.09-.48.11-.82,20.63,11.53,30.04,15.98,49.37,24.96-.35.13-.68.26-1.02.39,3.42,1.43,6.79,2.83,10.13,4.2,4.56-5.14,5.44-6.05,16.13-17.23-36.9-49.54-52.36-81.28-63.65-104.46-11.93,25.08-15.16,33.61-21.02,49.09-.45-.35-.73-.55-1.01-.74,3.44,2.3,6.02,6.61,5.64,10.28-.65,6.16-8.41,6.05-13.19-.19-4.22-5.51-2.93-12.59,3.81-11.64,1.23.2,2.44.72,3.56,1.44-.23-.15-.48-.29-.84-.49,7.03-19.08,10.03-26.05,22.97-53.33,21.74,47.48,44.06,79.71,65.05,108.67q44.86-45.89,60.34-62.64c.13.12.23.21.33.3-5.36-4.88-2.09-14.91,7.1-15.53,4.9-.22,8.94,3.19,9.19,7.78.41,7.46-8.7,12.42-14.84,8.82.03.02.05.03.09.06q-16.22,17.59-60.95,62.92c7.43,9.91,10.97,14.49,16.62,21.7,1.2-.62,2.72-.98,4.5-.85.25.02,6,.49,6.46,4.98,0,.07,0,.16,0,.23h0c-.03.42-.14.81-.29,1.18,1.63.99,2.55,2.42,2.52,3.78-.12,4.64-8.68,6.19-12.55,2.27-1.39-1.41-1.55-2.97-.88-4.3-.44-.3-.85-.64-1.2-1.04-1.6-1.85-1.34-3.85.06-5.26-5.77-7.23-7.27-9.2-16.55-21.34q-7.08,7.26-16.38,17.41c-4.59-1.83-8.88-3.6-13.03-5.33-32.15,12.14-37.43,14.18-45.49,18.78,13.8,7.27,34.66,18.25,61.21,25.69,0,0,0,0,0,.01-11.44-3.2-30.58-8.56-61.58-25.45-.82.61-1.87,1.52-2.46,2.36-.24.34-.12.96-.17,1.38ZM329.4,395.29c.31.27.55.44.9.67-.31-.2-.61-.42-.9-.67ZM191.74,448.77c11.84,6.3,22.97,11.61,33.61,16.35-13.77-6.68-23.5-12.06-32.96-17.3.02-.07.03-.11.05-.17-.15.45-.39.81-.7,1.12ZM191.8,490.37c7.64-4.55,15.73-7.64,45-18.73-19.5-8.23-34.29-15.47-46.51-22.04-1.27.33-2.94.11-4.84-.85-2.34-1.18-4.2-2.97-5.38-4.81-6.74-3.84-12.78-7.48-18.56-10.97-.68,2.96-4.18,2.67-7.59.21.35,15.75,3.25,25.95,12.85,41.63,7.41,4.83,17.41,11.07,25.02,15.57ZM362.87,512.86c-16.04,4.73-21.68,5.7-33.25,7.57-.2.02-.4.04-.64.06-2.25.18-4.74.24-6.07.28-2.97.08-4.76.12-4.92.51.19.17.67.35,2.75.17,2.46-.26,5.56-.59,8.27-.92-.03,0-.06,0-.09.01l-.32.05.98-.12.21-.03c.07,0,.13-.02.19-.03.3-.04.64-.08.93-.11l.53-.07c-.3.04-.68.09-1.18.14,17.93-2.71,30.89-6.92,32.55-7.49-.53.28-.88.5-.89.61.57.11,5.29-1.35,8.42-2.61.22-.09.5-.21.71-.29,1.92-.82,2.91-1.37,2.96-1.66-.42-.4-8.42,2.53-11.16,3.93ZM262.76,518.78c-3.72-1.35-7.43-2.18-7.95-1.78-.1.95,8.69,2.67,9.41,2.52,0-.02.02-.04.03-.06-.07-.06-.19-.18-1.22-.58-.08-.03-.19-.07-.27-.1ZM386.86,89.62c-4.4-2.73-7.34-3.52-7.77-3.05-1.16,1.27,9.5,8.37,12,8,1.39-.21-.34-2.36-3.71-4.61-.16-.1-.37-.24-.52-.34ZM336.56,106.8c2.29.61,3.61-1.49,1.89-4.82-.06-.11-.14-.25-.2-.36-2.12-3.47-5.04-4.99-6.33-4.19-2.25,1.39.54,8.27,4.65,9.37ZM337.84,68.14c-.5-.22-1.01-.44-1.51-.66-.14-.06-.35-.07-.5-.09l-.32-.12c-2.88-1.05-4.88-1.56-4.65-1.18.15.24,1.3.86,1.31.86-2.49-.35-5.81-.85-8.3-1.26-.86-.4-1.66-.78-2.42-1.14.57.32,1.17.65,1.85,1.04-8.08-1.59-14.26-2.94-20.26-5.99,7.75,7.18,9.59,8.89,21.74,20.64.04-.24.06-.29.18-.44-9.67-9.15-12.27-11.61-20.78-19.29,3.42,1.52,7.69,3.41,20.28,5.74,2.83,1.97,6.75,4.41,9.41,6.61.26.09.45.17.67.25-1.11-.45-1.81-.57-1.94-.37-.72,1.1,8.2,7.21,9.94,6.81.83-.19-.08-1.65-3-3.67-.11-.08-.26-.18-.37-.25-1.8-1.17-3.34-1.98-4.48-2.46.06.02.1.04.17.07-2.93-2.09-6.72-5.05-9.81-6.89,2.52.4,5.89.92,8.42,1.27l4.23.5.16.02ZM340.02,67.64c-3.72-1.42-6.69-2.23-7.32-2.16-.02.02-.04.06-.05.08.56.72,12.16,5.8,13.1,5.15.06-.52-2.75-1.9-5.55-3-.05-.02-.13-.05-.18-.07ZM331.3,87.66c1.41.07,1.6-1.61-.4-4.12-.07-.09-.17-.21-.24-.29-2.17-2.54-4.95-4.21-5.72-3.44-1.21,1.21,3.34,7.72,6.36,7.86ZM321.44,64.55c-2.6-1.45-4.25-2.27-7.26-3.37,1.87.84,4.18,1.91,7.26,3.37ZM299.64,56.55c1.59.38,2.08.67,2.97,1.2l-2.97-1.2,4.27,1.78c-.66-.68-1.36-.93-2.65-1.39,6.51,2.07,10.25,3.27,12.93,4.24-5.23-2.34-7.09-2.8-13.1-4.29-.43-.12-1.01-.24-1.44-.34ZM299.89,56.58c-.08,0-.18-.02-.25-.03.89.12,1.77.29,2.67.35-.09-.02-.93-.14-2.41-.32ZM369.01,80.62c7.26-1.6,10.12-2.8,13.96-4.57,29.75,15.94,44.54,35.54,46.13,37.72,2.55,3.5,5.27,8.79,8.5,11.68.03.03.09.04.13.07-.89-.3-1.53-.27-1.82,0-1.84,1.77,5.88,10.54,9.61,10.92,2.34.24,1.44-3.08-1.79-6.56-.11-.12-.27-.28-.38-.4-1.85-1.84-3.44-2.96-4.69-3.57.03.01.08.02.11.04-19.82-29.62-39.68-40.95-57.19-50.95-4.3,2.22-8.04,3.2-13.7,4.56-28.98-15.56-40.86-17.86-43.81-18.2,23.28,7.45,23.69,7.67,44.94,19.25ZM324.73,61.37c-.61-.34-3.42-1.09-6.67-1.78-.07-.01-.16-.03-.23-.05-2.98-.61-6.89-1.3-7.47-1.28.13.04,14.02,3.42,14.38,3.1Z"/>
    <path class="cls-1" d="M383.91,41.5c-71.64-24.2-147.55-19.03-213.73,14.57C80.81,101.43,45.08,181.31,30.83,240.33c-1.71,7.1-8.75,11.42-15.7,9.68-6.96-1.75-11.21-8.93-9.5-16.02C21.19,169.54,60.35,82.24,158.61,32.37,230.96-4.35,313.87-10.04,392.05,16.37c78.79,26.61,142.28,82.47,178.77,157.28,4.62,9.48,8.82,19.27,12.46,29.1,3.61,9.73,6.77,19.72,9.39,29.71,1.86,7.06-2.25,14.32-9.17,16.21-1.04.28-2.1.43-3.13.45-5.82.1-11.18-3.82-12.76-9.82-2.4-9.14-5.29-18.29-8.59-27.2-3.34-9.01-7.19-17.98-11.42-26.67-33.39-68.44-91.52-119.56-163.68-143.93ZM99.57,259.99c-.04-6.44.11-12.98-.91-19.29-1.48-9.15-6.06-16.57-14.76-20.77-3.99-1.93-8.24-1.44-12.45-1.52-5.12-.1-9.62,1.51-13.47,4.86-6.28,5.49-9.62,12.65-10.12,20.83-.52,8.56-.28,17.16-.26,25.74.05,27.15.12,54.29.27,81.44.04,6.96-.08,13.98.76,20.85,1,8.14,4.91,14.96,11.75,19.8,4.92,3.48,10.52,3.33,16.16,3.26,5.72-.08,10.47-2.26,14.45-6.3,4.58-4.64,7.1-10.33,8.38-16.68.17-1.9.47-3.8.49-5.7.04-7.41,0-14.82-.02-22.23-.08-28.1-.12-56.2-.28-84.29ZM.24,307.41c1.83,17.81,18.15,37.63,30.82,37.53-.09-28.03-.18-56.05-.26-84.26-17.02,4.87-32.96,23.32-30.56,46.74ZM582.74,360.22c-7.19-1.3-14.07,3.5-15.36,10.7-1.66,9.3-3.87,18.53-6.55,27.44-2.94,9.77-6.54,19.43-10.7,28.7-30.01,66.94-84.39,103.54-116.35,120.19-6.75-8.31-17.03-13.63-28.57-13.63-20.32,0-36.79,16.47-36.79,36.79s16.47,36.79,36.79,36.79,35.42-15.19,36.67-34.38c34.48-17.28,97.87-57.9,132.4-134.94,4.62-10.3,8.62-21.04,11.89-31.9,2.97-9.88,5.42-20.11,7.26-30.41,1.29-7.2-3.5-14.07-10.7-15.36ZM549.25,243.45c-.72-8.16-4.26-15.23-10.69-20.54-3.93-3.25-8.49-4.73-13.6-4.49-4.2.2-8.46-.17-12.4,1.87-8.58,4.44-12.95,11.99-14.17,21.17-.84,6.34-.52,12.87-.37,19.31.62,28.09,1.36,56.18,2.06,84.27.19,7.41.35,14.81.6,22.22.06,1.9.42,3.79.64,5.68,1.46,6.31,4.14,11.93,8.84,16.44,4.09,3.92,8.9,5.98,14.62,5.89,5.64-.08,11.25-.09,16.07-3.71,6.7-5.03,10.42-11.96,11.19-20.12.65-6.9.34-13.91.18-20.86-.6-27.14-1.29-54.28-1.99-81.41-.22-8.58-.22-17.19-.97-25.72ZM569.57,260.67c-.09,28.21-.18,56.24-.26,84.26,12.67.1,28.99-19.72,30.82-37.53,2.41-23.42-13.54-41.87-30.56-46.74Z"/>
  </g>
</svg>