<?xml version="1.0" encoding="UTF-8"?> <svg xmlns="http://www.w3.org/2000/svg" width="500" height="161" viewBox="0 0 500 161" fill="none"><g clip-path="url(#clip0_2079_119841)"><path d="M482.66 35.0031C482.94 34.3743 483.317 33.8154 483.806 33.3543C484.281 32.8932 484.854 32.516 485.483 32.2505C486.125 31.985 486.796 31.8453 487.523 31.8453C488.249 31.8453 488.92 31.985 489.549 32.2505C490.177 32.516 490.736 32.8793 491.211 33.3543C491.686 33.8294 492.064 34.3743 492.343 35.0031C492.623 35.6318 492.762 36.3304 492.762 37.057C492.762 37.7836 492.623 38.5101 492.343 39.1528C492.064 39.7956 491.686 40.3545 491.211 40.8155C490.736 41.2906 490.177 41.6539 489.549 41.9194C488.92 42.1848 488.235 42.3106 487.523 42.3106C486.81 42.3106 486.125 42.1848 485.483 41.9194C484.84 41.6539 484.281 41.2906 483.806 40.8155C483.331 40.3405 482.94 39.7816 482.66 39.1528C482.381 38.5101 482.241 37.8115 482.241 37.057C482.241 36.3025 482.381 35.6318 482.66 35.0031ZM483.527 38.8454C483.75 39.3904 484.044 39.8654 484.435 40.2706C484.826 40.6758 485.287 40.9832 485.804 41.2207C486.335 41.4443 486.908 41.5701 487.523 41.5701C488.138 41.5701 488.696 41.4583 489.213 41.2207C489.73 40.9972 490.191 40.6758 490.583 40.2706C490.974 39.8654 491.267 39.3904 491.491 38.8454C491.714 38.3005 491.826 37.6997 491.826 37.057C491.826 36.4143 491.714 35.8414 491.491 35.3104C491.267 34.7795 490.974 34.3044 490.583 33.8992C490.191 33.494 489.744 33.1867 489.213 32.9631C488.682 32.7395 488.124 32.6138 487.523 32.6138C486.922 32.6138 486.335 32.7256 485.804 32.9631C485.273 33.1867 484.812 33.508 484.435 33.8992C484.058 34.2905 483.75 34.7655 483.527 35.3104C483.303 35.8554 483.191 36.4422 483.191 37.057C483.191 37.6718 483.303 38.3005 483.527 38.8454ZM487.858 34.011C488.585 34.011 489.13 34.1507 489.479 34.4442C489.828 34.7376 490.01 35.1707 490.01 35.7576C490.01 36.3025 489.856 36.7077 489.549 36.9732C489.241 37.2247 488.864 37.3784 488.403 37.4342L490.15 40.1449H489.13L487.467 37.5041H486.461V40.1449H485.511V34.025H487.886L487.858 34.011ZM487.439 36.7356C487.648 36.7356 487.858 36.7356 488.054 36.7077C488.249 36.6797 488.417 36.6518 488.571 36.5819C488.724 36.5121 488.836 36.4143 488.934 36.2745C489.018 36.1348 489.074 35.9532 489.074 35.7017C489.074 35.4921 489.032 35.3384 488.948 35.2126C488.864 35.0869 488.766 35.0031 488.641 34.9332C488.515 34.8633 488.375 34.8214 488.207 34.7935C488.04 34.7655 487.886 34.7655 487.718 34.7655H486.461V36.7077H487.453L487.439 36.7356Z" fill="#4F4F51"></path><path d="M155.218 107.044H146.765V92.4852H146.471C141.665 102.545 131.744 108.232 120.525 108.232C101.578 108.232 94.1309 97.152 94.1309 79.6586V30.8114H103.311V79.7984C103.744 93.3515 108.858 100.491 123.431 100.491C139.178 100.491 146.024 85.6248 146.024 70.3111V30.8114H155.204V107.044H155.218Z" fill="#4F4F51"></path><path d="M170.783 30.6297H179.39V43.5262H179.837C184.728 34.3324 192.734 28.4081 204.904 28.4081C214.992 28.4081 224.032 33.2984 226.84 43.3865C231.437 33.3124 241.078 28.4081 251.152 28.4081C267.905 28.4081 276.512 37.1548 276.512 55.249V107.142H267.164V55.6821C267.164 43.0791 262.414 36.2606 249.07 36.2606C232.918 36.2606 228.321 49.6041 228.321 63.842V107.142H218.974V55.235C219.127 44.8536 214.824 36.2606 202.961 36.2606C186.795 36.2606 180.27 48.4165 180.131 64.4288V107.128H170.783V30.6297V30.6297Z" fill="#4F4F51"></path><path d="M299.161 70.7583C299.301 83.8224 306.119 99.5972 323.319 99.5972C336.397 99.5972 343.495 91.9264 346.346 80.8463H355.302C351.473 97.4734 341.805 107.128 323.333 107.128C300.027 107.128 290.219 89.2157 290.219 68.3411C290.219 49.0173 300.027 29.5538 323.333 29.5538C346.639 29.5538 356.294 50.163 355.581 70.7583H299.175H299.161ZM346.625 63.2272C346.192 49.7299 337.822 37.0849 323.319 37.0849C308.816 37.0849 300.586 49.8696 299.161 63.2272H346.625Z" fill="#4F4F51"></path><path d="M369.903 30.6856H378.301V46.7817H378.608C383.093 34.9891 393.433 29.1487 407.685 29.1487V38.5381C390.694 37.6438 379.055 50.163 379.055 66.1195V107.114H369.903V30.6856Z" fill="#4F4F51"></path><path d="M414.713 53.8517C415.593 36.2186 427.972 28.6317 445.186 28.6317C458.46 28.6317 472.879 32.7116 472.879 52.8318V92.7787C472.879 96.2717 474.626 98.3257 478.273 98.3257C479.293 98.3257 480.452 98.0323 481.193 97.7388V105.466C479.153 105.899 477.686 106.052 475.213 106.052C465.879 106.052 464.426 100.799 464.426 92.9324H464.133C457.719 102.699 451.152 108.246 436.719 108.246C422.286 108.246 411.499 101.4 411.499 86.2256C411.499 65.0855 432.052 64.3589 451.879 62.0256C459.466 61.1453 463.686 60.1253 463.686 51.8257C463.686 39.4323 454.785 36.3723 443.999 36.3723C432.625 36.3723 424.172 41.6259 423.878 53.8657H414.699L414.713 53.8517ZM463.7 64.9318H463.406C462.247 67.1115 458.153 67.852 455.68 68.2852C440.086 71.0517 420.693 70.912 420.693 85.6388C420.693 94.8326 428.853 100.505 437.46 100.505C451.46 100.505 463.839 91.619 463.7 76.8921V64.9318V64.9318Z" fill="#4F4F51"></path><path d="M3.17142 107.883L1.1594 105.941C2.36102 102.434 3.50676 98.647 4.56865 94.5392C6.84614 85.5969 8.64857 78.2335 10.0039 72.4629C11.3452 66.7063 12.9381 60.3908 14.7545 53.5443C15.7046 49.9395 16.1936 47.4524 16.1936 46.1111C16.1936 45.2029 15.998 44.5182 15.6208 44.0851C15.2435 43.6519 14.7824 43.4284 14.2515 43.4284C12.4211 43.4284 8.39707 45.7757 2.19336 50.4704L0.0136719 46.1111C9.93403 37.7277 17.1438 32.2365 21.6289 29.6517C24.591 27.9331 27.0921 27.0668 29.132 27.0668C30.5572 27.0668 31.6331 27.458 32.3596 28.2404C33.0722 29.0229 33.4355 30.3642 33.4355 32.2365C33.4355 34.5559 33.1141 37.2945 32.4854 40.4802C31.5213 45.5382 29.3556 54.5084 26.0022 67.3909C31.0462 58.0015 37.5014 49.5622 45.3539 42.0451C51.1105 36.5959 56.6435 32.516 61.953 29.8193C65.502 27.9889 68.6178 27.0668 71.3005 27.0668C73.564 27.0668 75.2826 27.7095 76.4563 28.995C77.644 30.2804 78.2308 32.1527 78.2308 34.6258C78.2308 36.554 77.9094 39.1109 77.2388 42.2687C76.1349 47.2568 73.8155 56.1153 70.2666 68.8161C68.6178 75.2015 67.4162 80.6646 66.6617 85.2336C66.1587 88.2935 65.9072 90.3335 65.9072 91.3535C65.9072 92.3735 66.0888 93.1559 66.4661 93.6869C66.7875 94.0641 67.2346 94.2458 67.8214 94.2458C68.7715 94.2458 70.1268 93.7707 71.8734 92.8346C74.6259 91.3675 77.3505 89.5511 80.0472 87.3993L82.0313 91.9263C73.1728 98.7029 66.0749 103.37 60.7654 105.955C57.5937 107.464 54.6455 108.218 51.9069 108.218C49.867 108.218 48.4138 107.45 47.5615 105.913C46.6952 104.376 46.2761 102.489 46.2761 100.226C46.2761 95.9783 48.2322 86.9522 52.1584 73.1475C56.0847 59.3568 58.0547 50.4565 58.0547 46.4883C58.0547 45.4683 57.7753 44.6719 57.2024 44.113C56.6435 43.5541 55.903 43.2607 54.9808 43.2607C53.7932 43.2607 52.4518 43.6938 50.9428 44.5601C47.6593 46.4464 43.8449 50.0792 39.4855 55.4166C35.1261 60.768 31.675 66.2731 29.118 71.9459C26.5611 77.6187 24.6329 82.9701 23.3475 87.9862C21.4752 95.2657 20.3294 100.897 19.9103 104.879C13.3293 105.41 7.76832 106.416 3.19936 107.869L3.17142 107.883Z" fill="#00529B"></path><path d="M276.54 145.776C276.666 143.428 277.476 141.724 278.957 140.676C280.438 139.614 282.325 139.083 284.616 139.083C285.496 139.083 286.377 139.167 287.243 139.334C288.123 139.502 288.906 139.824 289.604 140.285C290.303 140.746 290.862 141.402 291.309 142.241C291.742 143.079 291.966 144.169 291.966 145.51V156.101C291.966 157.079 292.441 157.568 293.391 157.568C293.642 157.568 293.908 157.512 294.159 157.415V159.469C293.88 159.525 293.628 159.566 293.405 159.58C293.181 159.608 292.916 159.622 292.566 159.622C291.952 159.622 291.449 159.538 291.085 159.371C290.708 159.203 290.415 158.966 290.219 158.658C290.009 158.351 289.884 157.988 289.814 157.554C289.758 157.121 289.716 156.66 289.716 156.143H289.646C289.213 156.786 288.766 157.359 288.305 157.862C287.858 158.365 287.355 158.784 286.796 159.133C286.237 159.483 285.608 159.748 284.882 159.93C284.155 160.111 283.317 160.195 282.367 160.195C281.416 160.195 280.564 160.083 279.754 159.846C278.943 159.608 278.231 159.259 277.63 158.784C277.029 158.309 276.554 157.708 276.205 156.968C275.855 156.227 275.674 155.361 275.674 154.355C275.674 152.958 275.981 151.868 276.596 151.085C277.211 150.303 278.035 149.702 279.055 149.283C280.075 148.878 281.221 148.584 282.492 148.416C283.764 148.249 285.063 148.081 286.377 147.927C286.866 147.872 287.313 147.802 287.718 147.718C288.123 147.62 288.445 147.494 288.696 147.313C288.948 147.131 289.157 146.88 289.297 146.544C289.437 146.209 289.506 145.776 289.506 145.231C289.506 144.406 289.367 143.736 289.101 143.205C288.836 142.674 288.459 142.255 287.983 141.947C287.508 141.64 286.949 141.416 286.321 141.305C285.692 141.193 285.007 141.137 284.295 141.137C282.772 141.137 281.514 141.5 280.522 142.241C279.53 142.981 279.013 144.155 278.957 145.776H276.526H276.54ZM289.534 148.71H289.451C289.297 148.989 289.003 149.199 288.556 149.325C288.123 149.45 287.732 149.534 287.397 149.59C286.363 149.772 285.301 149.926 284.211 150.079C283.121 150.219 282.115 150.429 281.221 150.722C280.313 151.001 279.572 151.407 278.999 151.938C278.412 152.468 278.133 153.223 278.133 154.201C278.133 154.816 278.259 155.361 278.496 155.836C278.748 156.311 279.069 156.73 279.488 157.079C279.907 157.429 280.383 157.694 280.913 157.876C281.458 158.057 282.003 158.155 282.576 158.155C283.498 158.155 284.393 158.015 285.245 157.722C286.097 157.443 286.838 157.023 287.466 156.493C288.095 155.948 288.598 155.291 288.975 154.522C289.353 153.754 289.534 152.874 289.534 151.896V148.724V148.71Z" fill="#808285"></path><path d="M303.856 132.027H309.892L321.406 150.54H321.49V132.027H327.176V159.622H321.112L309.627 141.151H309.543V159.622H303.856V132.027Z" fill="#00529B"></path><path d="M330.558 139.642H336.049V159.622H330.558V139.642ZM336.049 136.554H330.558V132.027H336.049V136.554Z" fill="#00529B"></path><path d="M352.382 146.67C352.033 144.434 350.608 143.233 348.33 143.233C344.809 143.233 343.649 146.782 343.649 149.73C343.649 152.678 344.767 156.031 348.204 156.031C350.761 156.031 352.228 154.411 352.578 151.979H357.873C357.175 157.275 353.5 160.167 348.246 160.167C342.21 160.167 338.158 155.92 338.158 149.926C338.158 143.931 341.875 139.097 348.358 139.097C353.081 139.097 357.398 141.57 357.747 146.67H352.382V146.67Z" fill="#00529B"></path><path d="M365.069 147.48C365.139 145.929 366.145 143.233 369.624 143.233C372.293 143.233 373.494 144.7 373.997 147.48H365.069ZM379.488 150.959C379.88 144.812 376.596 139.097 369.792 139.097C363.728 139.097 359.592 143.652 359.592 149.646C359.592 155.64 363.49 160.153 369.792 160.153C374.319 160.153 377.602 158.141 379.139 153.433H374.305C373.955 154.676 372.181 156.017 369.973 156.017C366.913 156.017 365.223 154.439 365.069 150.959H379.488V150.959Z" fill="#00529B"></path><path d="M389.087 131.985H391.504V143.345H391.588C392.622 140.508 395.5 138.999 398.462 138.999C404.484 138.999 407.363 143.875 407.363 149.478C407.363 155.081 404.484 159.958 398.462 159.958C395.277 159.958 392.51 158.309 391.392 155.626H391.322V159.385H389.101V131.971L389.087 131.985ZM398.448 141.039C393.307 141.039 391.504 145.385 391.504 149.492C391.504 153.6 393.307 157.932 398.448 157.932C403.059 157.932 404.932 153.6 404.932 149.492C404.932 145.385 403.045 141.039 398.448 141.039Z" fill="#808285"></path><path d="M411.121 139.586H413.343V144.225H413.413C414.642 141.039 417.325 139.153 420.902 139.307V141.724C416.529 141.5 413.525 144.714 413.525 148.822V159.385H411.107V139.572L411.121 139.586Z" fill="#808285"></path><path d="M422.984 145.664C423.207 141.025 426.477 139.027 431.004 139.027C434.497 139.027 438.298 140.103 438.298 145.398V155.92C438.298 156.842 438.759 157.373 439.723 157.373C439.988 157.373 440.296 157.289 440.491 157.219V159.259C439.96 159.371 439.569 159.413 438.912 159.413C436.453 159.413 436.076 158.029 436.076 155.962H436.006C434.315 158.532 432.583 160 428.782 160C424.982 160 422.146 158.197 422.146 154.201C422.146 148.64 427.553 148.444 432.778 147.83C434.776 147.606 435.894 147.327 435.894 145.147C435.894 141.877 433.547 141.081 430.711 141.081C427.72 141.081 425.485 142.464 425.415 145.692H422.998L422.984 145.664ZM435.88 148.584H435.796C435.489 149.157 434.413 149.353 433.757 149.464C429.649 150.191 424.549 150.149 424.549 154.033C424.549 156.451 426.7 157.946 428.964 157.946C432.653 157.946 435.908 155.598 435.88 151.728V148.584V148.584Z" fill="#808285"></path><path d="M443.104 139.586H445.522V143.009H445.606C446.486 140.634 449.141 139.013 451.935 139.013C457.496 139.013 459.187 141.933 459.187 146.656V159.399H456.769V147.033C456.769 143.61 455.652 141.039 451.739 141.039C447.827 141.039 445.592 143.959 445.522 147.83V159.385H443.104V139.572V139.586Z" fill="#808285"></path><path d="M481.193 159.399H478.971V155.64H478.901C477.867 158.211 474.709 159.972 471.831 159.972C465.809 159.972 462.931 155.095 462.931 149.492C462.931 143.889 465.809 139.013 471.831 139.013C474.793 139.013 477.671 140.508 478.705 143.358H478.789V131.999H481.206V159.413L481.193 159.399ZM471.817 157.946C476.959 157.946 478.761 153.614 478.761 149.506C478.761 145.398 476.959 141.053 471.817 141.053C467.206 141.053 465.334 145.398 465.334 149.506C465.334 153.614 467.22 157.946 471.817 157.946Z" fill="#808285"></path></g><defs><clipPath id="clip0_2079_119841"><rect width="500" height="159.732" fill="white" transform="translate(0 0.46344)"></rect></clipPath></defs></svg> 