<?xml version="1.0" encoding="UTF-8"?>
<svg id="Layer_2" data-name="Layer 2" xmlns="http://www.w3.org/2000/svg" viewBox="0 0 251.01 41.24">
  <defs>
    <style>
      .cls-1 {
        fill: #1a3f70;
      }

      .cls-1, .cls-2 {
        stroke-width: 0px;
      }

      .cls-2 {
        fill: #25282a;
      }
    </style>
  </defs>
  <g id="Layer_1-2" data-name="Layer 1">
    <path class="cls-2" d="M251.01,7.8c.02,1.04-.82,1.9-1.86,1.92-1.04.02-1.9-.82-1.92-1.86-.02-1.04.82-1.9,1.86-1.92.01,0,.03,0,.04,0,1.03-.01,1.87.81,1.88,1.84,0,0,0,.01,0,.02ZM250.63,7.8c0-.83-.68-1.51-1.51-1.51s-1.51.68-1.51,1.51c0,.83.68,1.51,1.51,1.51,0,0,0,0,0,0,.83,0,1.5-.67,1.5-1.5,0,0,0,0,0-.01ZM249.24,6.89c.43,0,.69.21.69.55s-.22.5-.59.53l.6.7h-.36l-.58-.7h-.24v.7h-.3v-1.78h.78ZM248.76,7.16v.57h.48c.23,0,.38-.1.38-.29s-.15-.28-.38-.28h-.48Z"/>
    <path class="cls-2" d="M67.07,13.95c-1.06-.38-2.14-.69-3.24-.94-.97-.19-1.92-.47-2.83-.85-.56-.2-.93-.74-.92-1.33,0-.59.3-1.13.8-1.43.76-.41,1.63-.6,2.49-.54,1.69.03,3.34.49,4.79,1.36l1.24-3c-.86-.53-1.79-.91-2.77-1.14-1.06-.27-2.15-.4-3.24-.4-1.37-.04-2.73.21-4,.72-.99.4-1.84,1.07-2.46,1.94-.54.81-.82,1.76-.81,2.73-.05,1,.27,1.99.9,2.77.58.68,1.32,1.2,2.16,1.51,1.06.38,2.14.69,3.24.94.86.2,1.53.38,2,.54.45.14.87.37,1.24.66.3.24.48.61.48,1,0,.57-.31,1.09-.82,1.35-.78.39-1.65.57-2.52.51-1.04,0-2.07-.17-3.06-.49-.95-.29-1.85-.74-2.65-1.32l-1.36,3c.93.67,1.97,1.16,3.08,1.45,1.3.37,2.65.56,4,.55,1.37.03,2.73-.21,4-.71.99-.4,1.86-1.07,2.48-1.94.55-.8.83-1.74.83-2.71.05-1-.27-1.98-.9-2.75-.58-.66-1.32-1.17-2.15-1.48Z"/>
    <polygon class="cls-2" points="76.37 16.02 84.41 16.02 84.41 12.91 76.37 12.91 76.37 9.15 85.47 9.15 85.47 5.93 72.39 5.93 72.39 23.24 85.79 23.24 85.79 20.03 76.37 20.03 76.37 16.02"/>
    <path class="cls-2" d="M94.07,9.76c.88-.48,1.87-.73,2.87-.71,1.68-.03,3.28.71,4.35,2l2.57-2.37c-.81-.98-1.84-1.77-3-2.28-1.29-.54-2.67-.81-4.07-.79-1.67-.02-3.33.37-4.81,1.15-1.39.74-2.55,1.84-3.36,3.19-1.63,2.86-1.63,6.36,0,9.22.81,1.35,1.97,2.45,3.36,3.19,1.47.78,3.12,1.18,4.79,1.15,1.4.02,2.79-.25,4.08-.79,1.19-.5,2.25-1.29,3.06-2.3l-2.57-2.34c-1.06,1.32-2.66,2.07-4.35,2.05-1,.02-1.99-.22-2.87-.7-.85-.46-1.54-1.15-2-2-.95-1.8-.95-3.94,0-5.74.46-.81,1.13-1.48,1.95-1.93Z"/>
    <path class="cls-2" d="M117.49,15.48c.1,1.26-.25,2.51-1,3.53-.74.78-1.79,1.19-2.87,1.12-2.57,0-3.85-1.55-3.86-4.65V5.94h-4v9.69c-.14,2.15.6,4.27,2.06,5.86,2.93,3.19,7.9,3.4,11.09.47,1.76-1.62,2.68-3.94,2.52-6.33V5.94h-4l.06,9.54Z"/>
    <path class="cls-2" d="M137.99,15.57c.64-.99.96-2.14.93-3.32.03-1.18-.29-2.34-.91-3.34-.64-.96-1.55-1.72-2.61-2.17-1.26-.54-2.63-.81-4-.77h-7.5v17.31h4v-4.83h3.68l3.34,4.83h4.3l-3.88-5.6c1.08-.42,2-1.16,2.65-2.11ZM133.93,14.47c-.79.58-1.77.87-2.75.8h-3.26v-6h3.26c.98-.07,1.95.21,2.75.78.64.56.99,1.39.94,2.24.02.82-.32,1.61-.94,2.15v.03Z"/>
    <rect class="cls-2" x="141.6" y="5.94" width="4" height="17.31"/>
    <polygon class="cls-2" points="169.66 13.62 165.03 5.93 162.83 5.93 160.78 5.93 147.75 5.93 147.75 9.2 153.29 9.2 153.29 23.24 157.3 23.24 157.3 9.2 162.75 9.2 167.48 17.06 167.48 23.24 171.49 23.24 171.49 17.11 178.21 5.93 174.28 5.93 169.66 13.62"/>
    <path class="cls-2" d="M240.64,14.3l6-8.36h-4.3l-3.9,5.63-4-5.61h-4.55l6.08,8.5-6,8.32-7.52-16.82h-4l-7.55,16.94-3.62-5.2c2.22-.88,3.65-3.07,3.56-5.46.03-1.18-.29-2.34-.92-3.34-.64-.96-1.55-1.72-2.61-2.17-1.26-.54-2.63-.81-4-.77h-7.47v17.31h4v-4.83h3.69l3.34,4.83h8l1.47-3.7h8l1.53,3.71h8.24l4.1-6,4.18,6h4.62l-6.37-8.98ZM205.85,14.44c-.79.58-1.76.87-2.74.8h-3.27v-6h3.27c.98-.07,1.95.21,2.74.78.65.56.99,1.39.94,2.24.04.83-.31,1.64-.94,2.18h0ZM217.67,16.5l2.74-6.63,2.75,6.63h-5.49Z"/>
    <polygon class="cls-2" points="178.77 9.2 184.15 9.2 184.15 23.24 188.15 23.24 188.15 9.2 193.69 9.2 193.69 5.93 180.73 5.93 178.77 9.2"/>
    <path class="cls-2" d="M60.61,33.88h-3.44l-.74,1.65h-.68l2.83-6.18h.64l2.83,6.18h-.71l-.73-1.65ZM60.38,33.35l-1.49-3.32-1.48,3.32h2.97Z"/>
    <path class="cls-2" d="M70,29.35v6.22h-.54l-4-5v5h-.65v-6.18h.53l4,5v-5l.66-.04Z"/>
    <path class="cls-2" d="M81.74,33.88h-3.4l-.74,1.65h-.68l2.83-6.18h.59l2.83,6.18h-.69l-.74-1.65ZM81.5,33.35l-1.48-3.32-1.49,3.32h2.97Z"/>
    <path class="cls-2" d="M85.96,29.35h.65v5.62h3.46v.6h-4.11v-6.22Z"/>
    <path class="cls-2" d="M96.82,33.88h-3.48l-.75,1.65h-.68l2.83-6.18h.64l2.83,6.18h-.69l-.7-1.65ZM96.58,33.35l-1.48-3.32-1.49,3.32h2.97Z"/>
    <path class="cls-2" d="M105.26,35.57l-1.41-2h-2.16v2h-.65v-6.18h2.3c.67-.04,1.33.16,1.86.57.45.38.7.96.67,1.55.01.44-.12.86-.37,1.22-.25.34-.6.6-1,.72l1.51,2.12h-.75ZM104.74,32.57c.63-.6.66-1.6.06-2.23-.02-.02-.04-.04-.06-.06-.4-.29-.9-.44-1.4-.4h-1.65v3.1h1.65c.5.03,1-.11,1.4-.41Z"/>
    <path class="cls-2" d="M115.61,29.35v6.22h-.63v-5l-2.43,4.16h-.3l-2.43-4.16v5h-.63v-6.18h.54l2.68,4.58,2.66-4.58.54-.04Z"/>
    <path class="cls-2" d="M118.99,35.44c-.09-.09-.14-.22-.14-.35,0-.13.05-.25.14-.34.18-.18.47-.19.65,0,0,0,0,0,0,0,.09.09.15.21.14.34,0,.13-.05.26-.14.35-.18.18-.47.19-.65,0,0,0,0,0,0,0Z"/>
    <path class="cls-2" d="M123.88,35.18c-.48-.26-.88-.65-1.16-1.13-.56-1-.56-2.22,0-3.22.28-.47.68-.86,1.16-1.13.51-.27,1.08-.41,1.66-.4.44,0,.87.07,1.28.23.38.14.72.37,1,.67l-.41.41c-.48-.48-1.15-.75-1.83-.73-.47,0-.92.11-1.33.34-.39.21-.72.53-.94.91-.45.81-.45,1.81,0,2.62.22.39.55.7.94.92.41.22.87.34,1.33.33.69.02,1.35-.25,1.83-.74l.41.41c-.27.3-.62.54-1,.68-.96.37-2.02.31-2.93-.17h-.01Z"/>
    <path class="cls-2" d="M131.87,35.18c-.48-.27-.88-.66-1.17-1.13-.55-1-.55-2.22,0-3.22.28-.47.69-.86,1.17-1.12.51-.27,1.08-.42,1.66-.41.58-.01,1.15.13,1.66.4.99.55,1.6,1.6,1.59,2.74.01.57-.14,1.12-.43,1.61-.28.48-.68.87-1.16,1.13-.51.28-1.08.42-1.66.41-.58,0-1.15-.14-1.66-.41ZM134.87,34.67c.39-.22.71-.54.93-.92.44-.82.44-1.8,0-2.62-.22-.38-.54-.7-.93-.92-.83-.44-1.82-.44-2.65,0-.39.21-.72.53-.94.92-.45.81-.45,1.81,0,2.62.22.39.55.71.94.92.83.44,1.82.44,2.65,0Z"/>
    <path class="cls-2" d="M146.43,29.35v6.22h-.63v-5l-2.46,4.18h-.31l-2.4-4.18v5h-.62v-6.18h.54l2.68,4.58,2.66-4.58.54-.04Z"/>
    <path class="cls-2" d="M155.34,35.18c-.48-.26-.88-.66-1.15-1.13-.56-1-.56-2.22,0-3.22.28-.48.68-.87,1.16-1.13.51-.27,1.08-.41,1.66-.4.43,0,.87.07,1.27.23.38.14.73.37,1,.67l-.42.41c-.48-.48-1.14-.75-1.82-.73-.47,0-.93.11-1.34.34-.39.21-.71.53-.94.91-.45.81-.45,1.81,0,2.62.23.38.55.7.94.92.41.22.87.34,1.34.33.68.02,1.35-.25,1.82-.74l.42.41c-.27.3-.62.54-1,.68-.41.16-.84.24-1.28.24-.58,0-1.15-.14-1.66-.41Z"/>
    <path class="cls-2" d="M163.34,35.18c-1.01-.54-1.62-1.6-1.59-2.74,0-.56.14-1.12.42-1.61.28-.47.68-.86,1.17-1.12,1.04-.54,2.28-.54,3.32,0,.48.27.88.66,1.16,1.13.56,1,.56,2.22,0,3.22-.28.48-.68.87-1.16,1.13-1.04.55-2.28.55-3.32,0h0ZM166.34,34.67c.39-.21.71-.53.93-.92.45-.81.45-1.81,0-2.62-.22-.39-.54-.71-.93-.92-.4-.22-.86-.34-1.32-.33-.46,0-.92.11-1.33.33-.39.21-.71.53-.93.92-.45.81-.45,1.81,0,2.62.22.39.54.71.93.92.41.22.87.34,1.33.33.46,0,.92-.11,1.32-.33h0Z"/>
    <path class="cls-2" d="M177.86,29.35v6.22h-.63v-5l-2.42,4.16h-.31l-2.43-4.16v5h-.63v-6.18h.54l2.68,4.58,2.66-4.58.54-.04Z"/>
    <path class="cls-2" d="M185.81,29.92c.86.81.9,2.15.09,3.01-.03.03-.06.06-.09.09-.53.4-1.19.6-1.85.56h-1.62v1.99h-.66v-6.18h2.32c.65-.04,1.29.15,1.81.53ZM185.34,32.57c.63-.6.66-1.6.06-2.23-.02-.02-.04-.04-.06-.06-.4-.29-.9-.44-1.4-.4h-1.6v3.09h1.64c.49.02.96-.12,1.36-.4Z"/>
    <path class="cls-2" d="M193.23,33.88h-3.45l-.74,1.69h-.7l2.83-6.18h.64l2.83,6.18h-.69l-.72-1.69ZM192.99,33.35l-1.49-3.32-1.48,3.32h2.97Z"/>
    <path class="cls-2" d="M202.61,29.35v6.22h-.54l-4-5v5h-.65v-6.18h.54l4,5v-5l.65-.04Z"/>
    <path class="cls-2" d="M208.51,33.4v2.17h-.64v-2.13l-2.48-4.05h.7l2.12,3.47,2.12-3.47h.65l-2.47,4.01Z"/>
    <path class="cls-1" d="M46.79,25.69v-10.12c0-1.33-.35-2.63-1-3.79-1.14-1.89-3.76-3.38-4.54-3.8-3.63-2-12.11-6.53-14.8-7.45-.96-.34-1.98-.52-3-.53h-.11c-1.02,0-2.04.19-3,.53-2.69.92-11.19,5.5-14.81,7.46-.79.42-3.43,1.95-4.53,3.79C.35,12.93,0,14.23,0,15.55v10.12c0,1.33.34,2.63,1,3.79,1.12,1.88,3.77,3.4,4.57,3.83,3.62,2,12.08,6.51,14.77,7.43.99.35,2.04.52,3.09.52h.05c1.02,0,2.04-.18,3-.52,2.69-.92,11.19-5.5,14.81-7.46.79-.42,3.43-2,4.53-3.8.64-1.15.97-2.45.97-3.77ZM24.18,33.99c-.23.08-.48.13-.73.13h-.05c-.27,0-.53-.04-.78-.13-.92-.32-3.52-1.49-11.88-6-1.18-.59-2.21-1.45-3-2.5-.42-.76-.64-1.62-.63-2.49h0v-1.53c0-.35.28-.63.63-.63.1,0,.2.02.29.07l14.85,7.87c.37.19.8.19,1.17,0l3.72-2c.31-.16.42-.55.26-.85-.06-.11-.15-.2-.26-.26L9.06,15.77c-.41-.21-.57-.71-.36-1.12.05-.1.12-.19.21-.26.71-.59,12.82-6.91,13.7-7.21.23-.09.47-.13.72-.14.29,0,.57.04.84.14,4.06,1.75,8.03,3.7,11.89,5.86,1.18.59,2.21,1.44,3,2.5.42.76.63,1.61.63,2.48h0v1.56c0,.35-.29.63-.64.62-.1,0-.19-.03-.28-.07l-14.65-7.76c-.36-.2-.81-.2-1.17,0l-3.73,1.95c-.31.16-.42.55-.26.85.06.11.15.2.26.26l18.63,9.86c.41.22.57.72.35,1.13-.05.09-.11.17-.18.24-.76.71-12.96,7.03-13.84,7.33h0Z"/>
  </g>
</svg>